<svg width="180" height="180" viewBox="0 0 180 180" fill="none" xmlns="http://www.w3.org/2000/svg">
<path d="M42.1576 110.702V133.2C39.3008 142.128 27.5164 143.913 23.9453 133.2V110.702M42.1576 110.702H23.9453M42.1576 110.702V68.9212M42.1576 110.702L77.1539 125.344M23.9453 110.702C-1.05206 110.702 -6.76574 72.1351 23.9453 68.9212H42.1576M42.1576 68.9212L77.1539 54.2799M77.1539 125.344V54.2799M77.1539 125.344V131.057C77.1539 145.699 98.5801 142.485 95.3662 131.057V89.6333M77.1539 54.2799V46.4236C77.1539 36.7818 95.399 36.1738 95.3662 46.4236V89.6333M95.3662 89.6333H110.007M110.007 89.6333V34.6391C110.47 29.1743 111.951 27.6447 116.078 26.7828H124.649H128.22M110.007 89.6333V145.52C111.281 151.026 112.71 152.343 116.078 152.662M110.007 89.6333H124.649H128.22H110.007ZM116.078 152.662H124.649H128.22H116.078Z" stroke="black" stroke-width="6"/>
<circle cx="153.217" cy="26.7828" r="23.7828" stroke="black" stroke-width="6"/>
<circle cx="153.217" cy="89.6333" r="23.7828" stroke="black" stroke-width="6"/>
<path d="M141.076 112.267C146.789 100.304 159.288 101.018 165.359 112.267" stroke="black" stroke-width="6"/>
<path d="M141.076 175.117C146.789 163.154 159.288 163.868 165.359 175.117" stroke="black" stroke-width="6"/>
<path d="M141.076 49.7735C146.789 37.8105 159.288 38.5247 165.359 49.7735" stroke="black" stroke-width="6"/>
<circle cx="153.217" cy="152.484" r="23.7828" stroke="black" stroke-width="6"/>
<circle cx="153.396" cy="28.3898" r="9.46327" fill="black"/>
<circle cx="153.396" cy="90.8832" r="9.46327" fill="black"/>
<circle cx="153.396" cy="154.091" r="9.46327" fill="black"/>
</svg>
