<svg width="141" height="177" viewBox="0 0 141 177" fill="none" xmlns="http://www.w3.org/2000/svg">
<path d="M42.0567 75.5709V97.221C43.7482 103.987 51.6978 102.803 52.5435 97.221V75.5709M42.0567 75.5709H52.5435M42.0567 75.5709C27.1723 75.5709 21.5907 49.8615 42.0567 48.0009H59.3091M52.5435 75.5709H59.3091V48.0009M59.3091 48.0009L88.0631 37.6833V84.7045L71.3181 78.7846" stroke="black" stroke-width="7"/>
<path d="M101.087 74.2179L108.529 80.307" stroke="black" stroke-width="7"/>
<path d="M99.7338 61.5322H110.051" stroke="black" stroke-width="7"/>
<path d="M101.256 48.8467L108.867 42.5885" stroke="black" stroke-width="7"/>
<path d="M4 99.7581V12.1431C4 6.22316 6.36797 4.02433 11.1039 4.02433H129.503C135.253 3.68604 137.283 6.89973 136.945 12.1431V99.7581" stroke="black" stroke-width="7"/>
<path d="M136.945 111.936V165.723C137.452 169.782 134.408 172.827 130.01 172.658H10.089C6.00323 172.321 3.74585 168.715 4.16907 165.723V111.936" stroke="black" stroke-width="7"/>
<path d="M63.1993 16.8789H21.2523C17.8695 16.8789 16.8547 18.2321 16.8547 21.6149V154.56C16.8553 158.494 18.0387 159.803 21.4215 159.803H119.354C122.906 159.803 124.428 158.45 124.428 154.391V20.9384C124.428 17.7247 122.78 16.8464 119.692 16.8789H77.0689M63.1993 16.8789C66.935 10.2505 74.8846 11.7857 77.0689 16.8789M63.1993 16.8789C60.3239 32.2709 81.2974 30.072 77.0689 16.8789" stroke="black" stroke-width="7"/>
<path d="M30.0477 122.085H110.559" stroke="black" stroke-width="7"/>
<path d="M29.8785 137.477H110.39" stroke="black" stroke-width="7"/>
</svg>
