<svg width="196" height="190" viewBox="0 0 196 190" fill="none" xmlns="http://www.w3.org/2000/svg">
<path d="M42.158 184.431H59.3725M154.472 184.431H137.047M137.047 184.431V179.603C137.047 172.045 134.528 168.896 129.07 168.896H114.585M137.047 184.431H59.3725M59.3725 184.431V179.603C59.3725 171.835 61.6817 168.896 68.6095 168.896H81.2054M81.2054 168.896L88.763 140.135M81.2054 168.896H114.585M88.763 140.135H107.027M88.763 140.135H15.9165C9.61851 139.086 5 134.257 5 128.799V102.768M107.027 140.135L114.585 168.896M107.027 140.135H178.614C187.431 140.135 191 132.368 191 124.81V19.4244C190.201 9.87231 187.221 5.77881 178.614 5.77881H17.386C8.77878 6.19867 5 10.1874 5 19.6343V102.768M5 102.768H22.2144" stroke="black" stroke-width="10"/>
<path d="M191 102.978H54.544" stroke="black" stroke-width="10"/>
<path d="M33.9528 102.896L43.6038 102.896" stroke="black" stroke-width="10"/>
<path d="M112.642 59.9927L144.327 38.1255C154.015 30.4152 146.43 14.34 132.962 19.2673L101.782 45.3453M112.642 59.9927L100.695 68.2377L98.1842 69.8856M112.642 59.9927L101.782 45.3453M101.782 45.3453L90.4851 54.7939L88.4441 56.5772M88.4441 56.5772L98.1842 69.8856M88.4441 56.5772C72.3063 51.9271 60.8007 61.8237 61.7694 83.784C67.2486 80.9002 72.452 81.625 84.6741 86.1494C96.617 84.6792 99.5216 81.079 98.1842 69.8856" stroke="black" stroke-width="10"/>
</svg>
