<svg width="1000" height="700" viewBox="0 0 1000 700" fill="none" xmlns="http://www.w3.org/2000/svg">
<g id="nov&#195;&#161; animace 1">
<g id="browser">
<g id="Group">
<g id="Group_2">
<path id="Vector" d="M453.2 124.5C455.1 125.6 456.7 128.3 456.7 130.5V136.9C456.7 139.1 455.1 140 453.2 138.9L418.6 119C416.7 117.9 415.1 115.2 415.1 113V106.6C415.1 104.4 416.7 103.5 418.6 104.6L453.2 124.5Z" fill="black"/>
</g>
<g id="Group_3">
<path id="Vector_2" d="M623.8 376.8C623.8 376.6 623.8 376.4 623.8 376.2C623.8 375.9 623.8 375.6 623.8 375.4C623.8 375.1 623.8 374.9 623.7 374.6C623.7 374.4 623.7 374.3 623.7 374.1C623.7 374 623.7 373.9 623.7 373.8C623.7 373.3 623.6 372.8 623.5 372.3C623.5 372.2 623.5 372.2 623.5 372.1C623.5 372 623.5 371.9 623.5 371.8C623.5 371.5 623.4 371.2 623.4 370.9C623.4 370.6 623.3 370.3 623.2 370C623.2 369.9 623.2 369.8 623.2 369.8V369.7C623.1 369.3 623 368.9 623 368.5C623 368.3 622.9 368.2 622.9 368C622.9 367.9 622.9 367.8 622.8 367.7C622.8 367.6 622.8 367.5 622.7 367.4C622.6 367 622.5 366.7 622.4 366.3C622.4 366.2 622.3 366 622.3 365.9C622.3 365.8 622.3 365.7 622.2 365.7C622.2 365.6 622.1 365.5 622.1 365.3C622 365 621.9 364.7 621.8 364.4C621.7 364.2 621.7 364.1 621.6 363.9C621.6 363.8 621.6 363.8 621.5 363.7C621.5 363.6 621.4 363.5 621.4 363.5C621.3 363.2 621.2 363 621.1 362.7C621 362.4 620.9 362.2 620.8 361.9C620.7 361.6 620.5 361.3 620.4 360.9C620.3 360.6 620.1 360.3 620 360C620 360 620 359.9 619.9 359.9C619.9 359.9 619.9 359.9 619.9 359.8C619.7 359.4 619.5 359 619.4 358.7C619.3 358.5 619.2 358.4 619.2 358.2C619.1 358 619 357.9 618.9 357.7C618.8 357.6 618.8 357.4 618.7 357.3C618.6 357.1 618.5 356.9 618.4 356.7C618.2 356.3 618 355.9 617.7 355.5C617.6 355.4 617.6 355.2 617.5 355.1C617.4 354.9 617.3 354.8 617.2 354.6C617 354.2 616.7 353.8 616.5 353.4C616.3 353.1 616.1 352.8 615.9 352.5C615.6 352.1 615.4 351.7 615.1 351.3C615 351.1 614.9 350.9 614.7 350.8C614.6 350.7 614.6 350.6 614.5 350.5C613.9 349.6 613.3 348.8 612.6 347.9C612.1 347.2 611.6 346.5 611 345.8L610.9 345.7C610.8 345.5 610.6 345.3 610.5 345.2C610.4 345.1 610.3 344.9 610.1 344.8C610.1 344.8 610.1 344.8 610.1 344.7C610 344.6 609.9 344.5 609.8 344.3C609.6 344.1 609.4 343.8 609.2 343.6L609.1 343.5C609 343.4 608.9 343.3 608.9 343.2C608.6 342.9 608.3 342.5 608 342.2C607.9 342.1 607.9 342.1 607.8 342C607.7 341.9 607.7 341.9 607.6 341.8C607.1 341.3 606.7 340.8 606.2 340.3L606.1 340.2C606.1 340.2 606.1 340.2 606 340.1C605.9 340 605.7 339.8 605.6 339.7C605.3 339.4 605.1 339.2 604.8 338.9C604.6 338.7 604.4 338.6 604.3 338.4C604.1 338.2 603.9 338 603.7 337.8L603.6 337.7C603.1 337.2 602.6 336.7 602.1 336.3C602.1 336.3 602.1 336.3 602 336.2C601.5 335.7 600.9 335.2 600.3 334.7L600.2 334.6C600.1 334.5 600 334.4 599.9 334.4C599.3 333.8 598.6 333.3 598 332.7C597.8 332.6 597.7 332.4 597.5 332.3C596.7 331.6 595.9 331 595.1 330.3C595 330.3 595 330.2 594.9 330.2C594.6 330 594.4 329.8 594.1 329.5C593.8 329.3 593.6 329.1 593.3 328.9C592.9 328.6 592.5 328.3 592.2 328C592 327.8 591.7 327.6 591.5 327.4C591.1 327 590.6 326.7 590.2 326.3C590 326.1 589.8 326 589.6 325.8C588.9 325.3 588.3 324.7 587.6 324.2L574 313.7C573 312.9 572 312.1 571 311.3C570.8 311.2 570.7 311 570.5 310.9C569.9 310.4 569.3 309.9 568.7 309.3C568.1 308.8 567.5 308.2 566.9 307.7C566.5 307.3 566 306.9 565.6 306.5C565.1 306.1 564.7 305.6 564.2 305.2C563.6 304.6 562.9 304 562.4 303.4C562 303 561.6 302.6 561.1 302.1C560.9 301.9 560.7 301.7 560.5 301.5C560.3 301.2 560 301 559.8 300.7C559.7 300.5 559.5 300.4 559.4 300.2C559.1 299.9 558.9 299.6 558.7 299.4C558.6 299.3 558.5 299.1 558.3 299C558 298.7 557.8 298.4 557.5 298C557.4 297.9 557.4 297.8 557.3 297.7C557 297.3 556.7 296.9 556.4 296.5C556.1 296.1 555.8 295.7 555.6 295.3C555.5 295.2 555.5 295.2 555.4 295.1C555 294.6 554.7 294 554.4 293.5C554.3 293.3 554.1 293 554 292.8C553.9 292.7 553.8 292.5 553.8 292.4C553.6 292 553.4 291.6 553.2 291.3C553.2 291.3 553.2 291.2 553.1 291.2C552.9 290.8 552.7 290.4 552.5 290C552.3 289.6 552.2 289.2 552.1 288.9C552.2 288.9 552.3 289 552.3 289C552.8 289.2 553.3 289.5 553.9 289.8C554.2 289.9 554.4 290.1 554.7 290.2C555.4 290.6 556.1 291 556.8 291.4C557.2 291.6 557.6 291.9 558 292.1C558.5 292.4 559 292.7 559.4 293C559.7 293.2 560 293.4 560.4 293.6C560.9 293.9 561.4 294.3 562 294.6C562.3 294.8 562.6 295 563 295.3C563.6 295.7 564.2 296.2 564.9 296.6C565.3 296.9 565.7 297.1 566 297.4C567.4 298.4 568.7 299.4 570 300.4C570.6 300.9 571.2 301.4 571.8 301.9C572.4 302.4 573 302.8 573.5 303.3C574.2 303.9 574.8 304.4 575.5 305C576 305.4 576.4 305.8 576.9 306.2C577.8 307 578.6 307.8 579.5 308.6C579.7 308.8 579.9 309 580.1 309.1C581.1 310.1 582.1 311.1 583.1 312.1C583.4 312.4 583.6 312.6 583.8 312.9C584.5 313.6 585.2 314.4 585.9 315.1C586.2 315.4 586.5 315.7 586.8 316.1C587.5 316.8 588.1 317.6 588.7 318.3C589 318.6 589.2 318.9 589.5 319.2C590.4 320.2 591.2 321.3 592.1 322.3L613.2 310L618.4 298.7C618.3 298.6 618.3 298.6 618.2 298.5C617.5 297.6 616.8 296.8 616.1 296C615.9 295.8 615.7 295.5 615.5 295.3C615.1 294.9 614.8 294.5 614.4 294.1C614.2 293.9 614 293.6 613.8 293.4C613.6 293.2 613.4 293 613.2 292.8C612.5 292 611.8 291.2 611.1 290.5C610.3 289.6 609.5 288.8 608.7 288C608.3 287.5 607.8 287.1 607.3 286.6C606.9 286.2 606.5 285.8 606.1 285.4C605.7 285 605.3 284.6 605 284.3C604.8 284.1 604.7 284 604.5 283.8C604 283.3 603.4 282.8 602.8 282.3C602.4 282 602.1 281.6 601.7 281.3C601.6 281.2 601.5 281.1 601.4 281.1C600.6 280.4 599.8 279.7 599.1 279.1C598.8 278.9 598.6 278.6 598.3 278.4C598.3 278.4 598.2 278.4 598.2 278.3C597.1 277.4 596 276.5 594.9 275.6C594.9 275.6 594.9 275.6 594.8 275.5C594.5 275.3 594.2 275 593.9 274.8C593.1 274.2 592.3 273.5 591.5 272.9C591.4 272.8 591.4 272.8 591.3 272.7C590.8 272.4 590.3 272 589.9 271.7C589.3 271.2 588.6 270.8 588 270.3C587.9 270.2 587.8 270.2 587.7 270.1C587.1 269.7 586.6 269.4 586 269C585.4 268.6 584.9 268.2 584.3 267.9C584.2 267.8 584 267.7 583.9 267.6C583.3 267.2 582.6 266.8 582 266.4C581.5 266.1 580.9 265.7 580.4 265.4C580.1 265.2 579.8 265 579.5 264.9C578.8 264.5 578.1 264.1 577.4 263.7C577.3 263.7 577.3 263.6 577.2 263.6C576.5 263.2 575.7 262.8 575 262.5C574.9 262.5 574.8 262.4 574.7 262.4C574.5 262.3 574.4 262.2 574.2 262.2C573.7 261.9 573.2 261.7 572.7 261.5C572.6 261.4 572.4 261.4 572.3 261.3C572.2 261.2 572 261.2 571.9 261.1C571.4 260.9 570.9 260.7 570.5 260.5C570.3 260.4 570.1 260.3 570 260.3C569.9 260.3 569.8 260.2 569.8 260.2C569.3 260 568.8 259.8 568.3 259.6C568.1 259.5 568 259.5 567.8 259.4H567.7C567 259.2 566.3 258.9 565.6 258.7C565.5 258.7 565.4 258.6 565.3 258.6C564.7 258.4 564.2 258.3 563.7 258.1C563.6 258.1 563.6 258.1 563.5 258.1C563.3 258.1 563.2 258 563 258C562.6 257.9 562.1 257.8 561.7 257.7C561.6 257.7 561.5 257.7 561.4 257.6C561.3 257.6 561.1 257.6 561 257.5C560.6 257.4 560.1 257.3 559.7 257.3C559.6 257.3 559.4 257.3 559.3 257.2C559.2 257.2 559.1 257.2 559 257.2C558.5 257.1 558 257.1 557.5 257C557.4 257 557.2 257 557.1 257H557C556.3 257 555.6 256.9 555 256.9H554.9C554.8 256.9 554.7 256.9 554.6 256.9C554 256.9 553.4 256.9 552.8 257C552.7 257 552.6 257 552.5 257C552.4 257 552.4 257 552.3 257C551.7 257.1 551 257.1 550.4 257.2C550.2 257.2 549.9 257.3 549.7 257.3C549.5 257.3 549.3 257.4 549 257.5C548.8 257.5 548.6 257.6 548.4 257.6C548 257.7 547.6 257.8 547.2 257.9C547.1 257.9 547 258 546.9 258C546.9 258 546.9 258 546.8 258C546.5 258.1 546.2 258.2 545.9 258.4C545.7 258.5 545.6 258.5 545.4 258.6C544.9 258.8 544.5 259.1 544 259.3L530 267.5L522.9 271.6C522.5 271.9 522.1 272.1 521.7 272.4C521.6 272.5 521.5 272.5 521.4 272.6C521 272.9 520.6 273.2 520.3 273.6L520.2 273.7C519.9 274 519.6 274.4 519.3 274.7C519.2 274.8 519.1 274.9 519.1 275C518.8 275.4 518.5 275.8 518.2 276.2C518.2 276.2 518.2 276.3 518.1 276.3C517.8 276.7 517.6 277.2 517.3 277.7C517.3 277.8 517.2 277.8 517.2 277.9V278C517 278.4 516.8 278.8 516.7 279.3C516.7 279.4 516.6 279.5 516.6 279.6C516.5 279.9 516.4 280.2 516.3 280.5V280.6C516.3 280.7 516.2 280.9 516.2 281C516.1 281.2 516.1 281.4 516 281.7C516 281.8 516 281.8 516 281.9C516 282.1 515.9 282.2 515.9 282.4C515.9 282.6 515.8 282.8 515.8 283C515.8 283.1 515.8 283.1 515.8 283.2C515.8 283.4 515.7 283.6 515.7 283.8C515.7 284 515.6 284.2 515.6 284.4V284.5C515.6 284.7 515.6 285 515.5 285.2C515.5 285.4 515.5 285.5 515.4 285.7V285.8C515.4 286.1 515.4 286.5 515.3 286.8C515.3 286.9 515.3 287 515.3 287.1C515.3 287.6 515.3 288 515.3 288.5V288.6C515.3 289 515.3 289.5 515.3 289.9C515.3 290.2 515.3 290.4 515.3 290.7C515.3 290.8 515.3 290.9 515.3 291C515.3 291.1 515.3 291.1 515.3 291.2C515.3 291.6 515.4 292 515.4 292.5C515.4 292.7 515.4 292.9 515.5 293.1C515.5 293.2 515.5 293.3 515.5 293.4C515.5 293.5 515.5 293.6 515.5 293.7C515.5 294.1 515.6 294.5 515.7 294.9C515.7 295.1 515.8 295.2 515.8 295.4C515.8 295.5 515.8 295.6 515.9 295.7C515.9 295.8 515.9 296 516 296.1C516.1 296.5 516.1 296.9 516.2 297.2C516.2 297.4 516.3 297.5 516.3 297.7C516.3 297.8 516.3 297.9 516.4 298C516.4 298.1 516.5 298.3 516.5 298.4C516.6 298.8 516.7 299.1 516.8 299.5C516.8 299.7 516.9 299.8 516.9 300C516.9 300.1 516.9 300.2 517 300.2C517 300.3 517.1 300.4 517.1 300.5C517.2 300.8 517.3 301.2 517.4 301.5C517.5 301.7 517.6 302 517.6 302.2C517.6 302.3 517.6 302.3 517.7 302.4C517.7 302.5 517.7 302.5 517.8 302.6C517.9 302.9 518 303.2 518.2 303.6C518.3 303.9 518.4 304.2 518.6 304.5C518.6 304.5 518.6 304.5 518.6 304.6V304.7C518.7 305 518.8 305.2 518.9 305.5C519 305.8 519.2 306.1 519.3 306.5C519.3 306.6 519.4 306.7 519.5 306.8V306.9C519.5 307 519.6 307 519.6 307.1C519.7 307.2 519.7 307.4 519.8 307.5C519.9 307.7 520 307.9 520.1 308.1C520.2 308.2 520.3 308.4 520.3 308.5C520.3 308.6 520.4 308.6 520.4 308.7C520.5 308.8 520.6 309 520.6 309.1C520.8 309.4 521 309.8 521.2 310.1C521.2 310.2 521.3 310.3 521.3 310.3C521.3 310.4 521.4 310.5 521.5 310.6C521.9 311.3 522.3 312 522.8 312.7C523 313 523.2 313.4 523.4 313.7C523.5 313.8 523.5 313.9 523.6 314C524 314.5 524.4 315.1 524.8 315.6C524.9 315.7 524.9 315.8 525 315.8C525 315.8 525 315.8 525 315.9C525.2 316.2 525.4 316.5 525.7 316.8C525.9 317 526.1 317.3 526.3 317.5C526.3 317.5 526.3 317.5 526.3 317.6C526.5 317.8 526.7 318.1 526.9 318.3C527.1 318.6 527.4 318.9 527.6 319.2C527.6 319.2 527.6 319.3 527.7 319.3C528 319.7 528.3 320 528.6 320.4C528.8 320.6 529 320.8 529.1 321C529.6 321.6 530.2 322.2 530.8 322.9C530.8 322.9 530.8 323 530.9 323C531 323.1 531.1 323.2 531.2 323.3C531.7 323.9 532.3 324.4 532.9 325C533 325.1 533.1 325.2 533.2 325.3C533.4 325.5 533.7 325.8 533.9 326C534 326.1 534.2 326.3 534.3 326.4C534.8 326.9 535.4 327.5 535.9 328C535.9 328 535.9 328 536 328.1C536.2 328.3 536.3 328.4 536.5 328.6C537 329 537.4 329.5 537.9 329.9C538.1 330.1 538.4 330.4 538.6 330.6C538.9 330.9 539.2 331.2 539.5 331.5C539.6 331.6 539.7 331.7 539.8 331.7C540.2 332.1 540.6 332.4 541 332.8C541.3 333.1 541.6 333.4 542 333.6C542.4 334 542.9 334.4 543.3 334.7C543.6 334.9 543.8 335.2 544.1 335.4C544.1 335.4 544.2 335.5 544.3 335.5C545.2 336.2 546.1 337 547 337.7C547.2 337.9 547.4 338 547.6 338.2C548.3 338.8 549.1 339.4 549.8 340C549.9 340.1 550 340.2 550.1 340.3C550.7 340.7 551.2 341.2 551.8 341.6L562.7 350.1C563.7 350.9 564.6 351.6 565.5 352.4C565.8 352.6 566.1 352.9 566.3 353.1C567 353.7 567.6 354.2 568.3 354.8C568.6 355 568.8 355.2 569.1 355.4C570.3 356.4 571.4 357.4 572.6 358.4C572.9 358.7 573.2 359 573.5 359.3C573.9 359.7 574.3 360.1 574.8 360.5C575 360.7 575.3 361 575.5 361.2C575.8 361.5 576 361.7 576.3 362C576.7 362.4 577.1 362.8 577.5 363.2C577.7 363.4 577.8 363.5 578 363.7C578.5 364.3 579 364.8 579.5 365.4C579.7 365.6 579.8 365.7 579.9 365.9C580.1 366.1 580.3 366.3 580.4 366.5C580.5 366.6 580.6 366.8 580.7 366.9C580.9 367.2 581.2 367.5 581.4 367.8C581.5 368 581.7 368.1 581.8 368.3C582 368.5 582.2 368.8 582.3 369C582.5 369.3 582.8 369.6 583 369.9C583.1 370.1 583.2 370.3 583.4 370.4C583.8 371 584.2 371.6 584.5 372.2C584.8 372.7 585.1 373.2 585.3 373.7C585.3 373.7 585.3 373.8 585.4 373.8C585.7 374.3 585.9 374.8 586.1 375.3C586.1 375.3 586.1 375.4 586.2 375.4C586.4 375.9 586.6 376.4 586.8 376.9V377C587 377.5 587.2 378 587.3 378.5C587.5 379 587.6 379.5 587.7 380V380.1C587.8 380.6 587.9 381.1 588 381.6C588 381.7 588 381.8 588 381.9C587.6 381.7 587.2 381.6 586.9 381.4C586.4 381.2 586 381 585.5 380.8C585.1 380.6 584.7 380.4 584.3 380.3C583.8 380.1 583.3 379.8 582.9 379.6C582.6 379.4 582.2 379.2 581.9 379.1C581.2 378.7 580.4 378.3 579.7 377.9C579 377.5 578.2 377 577.5 376.6C577.4 376.5 577.2 376.4 577.1 376.4C576.3 375.9 575.5 375.4 574.7 374.8C574.5 374.6 574.2 374.5 574 374.3C573.5 373.9 572.9 373.5 572.4 373.1C572.1 372.9 571.8 372.6 571.4 372.4C570.8 371.9 570.2 371.5 569.6 371C568.6 370.2 567.6 369.3 566.6 368.5C566.1 368.1 565.6 367.6 565.1 367.2C564.4 366.6 563.8 366 563.1 365.4C562.6 364.9 562.1 364.4 561.5 364C560.8 363.4 560.2 362.8 559.5 362.1C559 361.6 558.5 361.1 558 360.6C557.3 359.9 556.7 359.3 556 358.6C555.5 358.1 555 357.6 554.5 357C553.8 356.3 553.2 355.6 552.5 354.8C552 354.3 551.5 353.7 551 353.2C550.3 352.5 549.7 351.7 549 350.9C548.5 350.3 548 349.7 547.5 349.1C546.9 348.4 546.4 347.7 545.8 347C545.2 346.2 544.5 345.4 543.9 344.6C542.8 343.3 541.8 341.9 540.7 340.5L519.6 352.8L512.9 362.8C513.2 363.2 513.5 363.6 513.8 364.1C514.1 364.6 514.5 365 514.8 365.5C515 365.8 515.2 366 515.4 366.3C515.5 366.4 515.6 366.5 515.6 366.6C516.2 367.5 516.9 368.3 517.6 369.2C517.7 369.4 517.8 369.5 518 369.7C518 369.7 518 369.7 518.1 369.8C518.9 370.8 519.7 371.7 520.5 372.7C521.2 373.6 522 374.5 522.8 375.3C522.9 375.4 523 375.6 523.1 375.7C523.2 375.8 523.3 375.9 523.4 376.1C524.2 377 525 377.9 525.8 378.7C525.9 378.8 526.1 379 526.2 379.1C526.3 379.2 526.4 379.3 526.4 379.3C527.3 380.3 528.2 381.2 529.1 382.2C529.2 382.3 529.2 382.3 529.3 382.4C529.4 382.5 529.5 382.6 529.7 382.7C530.5 383.6 531.4 384.4 532.3 385.2C532.4 385.3 532.5 385.4 532.6 385.5C532.7 385.6 532.7 385.6 532.8 385.7C533.8 386.6 534.7 387.5 535.7 388.4C535.8 388.5 535.9 388.6 536 388.7C536.1 388.8 536.2 388.9 536.4 389C537.4 389.9 538.4 390.7 539.3 391.6L539.4 391.7C540.4 392.5 541.4 393.4 542.4 394.2C542.5 394.3 542.6 394.4 542.8 394.5C542.9 394.6 543 394.7 543.1 394.7C544.1 395.5 545.1 396.2 546.1 397C546.1 397 546.2 397 546.2 397.1C546.3 397.2 546.4 397.2 546.5 397.3C547.4 398 548.3 398.6 549.2 399.2C549.3 399.3 549.5 399.4 549.6 399.5C549.7 399.6 549.8 399.6 549.9 399.7C550.9 400.4 551.9 401 552.9 401.7L553 401.8C553.1 401.9 553.2 401.9 553.4 402C554.3 402.6 555.2 403.1 556 403.6C556.1 403.7 556.3 403.8 556.4 403.9C556.7 404.1 556.9 404.2 557.2 404.4C558.1 404.9 558.9 405.4 559.8 405.8L559.9 405.9C560 406 560.2 406 560.3 406.1C561.1 406.5 561.9 407 562.7 407.3C562.8 407.4 563 407.5 563.1 407.5C563.2 407.6 563.4 407.6 563.5 407.7C564.2 408 564.9 408.3 565.5 408.7C565.7 408.8 565.8 408.9 566 408.9C566.1 408.9 566.1 408.9 566.2 409C567 409.4 567.9 409.7 568.7 410.1C568.7 410.1 568.7 410.1 568.8 410.1C568.9 410.1 569 410.2 569.2 410.2C569.9 410.5 570.5 410.7 571.2 410.9C571.3 410.9 571.4 411 571.4 411C571.6 411.1 571.8 411.1 572 411.2C572.5 411.4 573 411.5 573.4 411.7C573.5 411.7 573.6 411.8 573.8 411.8C574 411.9 574.1 411.9 574.3 411.9C574.7 412 575.2 412.1 575.6 412.3C575.8 412.3 575.9 412.4 576.1 412.4C576.2 412.4 576.4 412.5 576.5 412.5C576.9 412.6 577.4 412.7 577.8 412.8C578 412.8 578.2 412.9 578.3 412.9C578.4 412.9 578.5 412.9 578.6 412.9C579.1 413 579.5 413.1 579.9 413.1C580.1 413.1 580.3 413.2 580.5 413.2H580.6C581.3 413.3 581.9 413.4 582.6 413.4C583.3 413.4 583.9 413.5 584.6 413.5C584.7 413.5 584.7 413.5 584.8 413.5C584.9 413.5 585.1 413.5 585.2 413.5C585.7 413.5 586.2 413.5 586.7 413.4C586.8 413.4 586.9 413.4 587.1 413.4C587.2 413.4 587.3 413.4 587.4 413.4C588.1 413.3 588.8 413.2 589.5 413.1C589.6 413.1 589.6 413.1 589.7 413.1C590.1 413 590.5 412.9 590.9 412.8H591C591.4 412.7 591.8 412.6 592.3 412.4C592.3 412.4 592.3 412.4 592.4 412.4C592.7 412.3 593 412.2 593.3 412C593.4 411.9 593.6 411.9 593.8 411.8C594.2 411.6 594.7 411.4 595.1 411.1L616.2 398.8C618.1 397.7 619.7 396.2 621.1 394.3C621.3 394 621.5 393.7 621.7 393.4C621.7 393.3 621.8 393.3 621.8 393.2C622.1 392.8 622.3 392.3 622.5 391.9C622.6 391.8 622.6 391.7 622.7 391.6V391.5C622.8 391.3 622.9 391 623 390.8C623.1 390.5 623.2 390.3 623.3 390V389.9C623.4 389.7 623.4 389.6 623.5 389.4C623.6 389.1 623.7 388.9 623.8 388.6C623.8 388.5 623.9 388.4 623.9 388.3C623.9 388.1 624 387.9 624 387.8C624 387.6 624.1 387.4 624.1 387.2C624.2 387 624.2 386.7 624.2 386.5C624.2 386.3 624.3 386.2 624.3 386C624.3 385.9 624.3 385.9 624.3 385.8C624.4 385.3 624.5 384.9 624.5 384.4V384.3C624.5 384.2 624.5 384.1 624.5 384C624.5 383.7 624.6 383.3 624.6 383C624.6 382.8 624.6 382.6 624.6 382.4C624.6 382.2 624.6 382.1 624.6 381.9C624.6 381.8 624.6 381.6 624.6 381.5C624.6 381 624.6 380.4 624.6 379.9V379.8C624.6 379.2 624.6 378.6 624.6 378C623.8 377 623.8 376.9 623.8 376.8ZM535.3 274.5C535.3 274.4 535.3 274.3 535.3 274.2C535.3 273.8 535.3 273.4 535.4 273.1C535.4 272.9 535.4 272.8 535.5 272.6C535.5 272.3 535.6 272 535.6 271.7C535.6 271.5 535.7 271.3 535.7 271.1C535.7 270.9 535.8 270.6 535.8 270.4C535.8 270.2 535.9 270 535.9 269.8C535.9 269.6 536 269.4 536 269.1C536 269 536 269 536.1 268.9C536.4 268.9 536.7 269 537 269C537.2 269 537.5 269.1 537.7 269.1C538.1 269.2 538.6 269.2 539 269.3C539.2 269.3 539.5 269.4 539.7 269.4C540.1 269.5 540.6 269.6 541 269.7C541.2 269.8 541.5 269.8 541.7 269.9C542.2 270 542.8 270.2 543.3 270.4C543.4 270.4 543.6 270.5 543.7 270.5C544.4 270.7 545.1 270.9 545.8 271.2C546 271.3 546.2 271.3 546.4 271.4C546.9 271.6 547.4 271.8 547.9 272C548.2 272.1 548.4 272.2 548.7 272.3C549.2 272.5 549.7 272.7 550.1 272.9C550.4 273 550.6 273.1 550.9 273.3C551.4 273.5 551.9 273.8 552.4 274C552.7 274.1 552.9 274.2 553.2 274.4C553.3 274.4 553.4 274.5 553.4 274.5L536.2 284.5C536.1 284 536 283.5 535.9 283C535.9 282.9 535.9 282.8 535.8 282.7C535.7 282 535.6 281.4 535.5 280.7C535.5 280.6 535.5 280.5 535.5 280.4C535.4 279.7 535.4 279.1 535.3 278.4C535.3 278.3 535.3 278.2 535.3 278.1C535.3 277.4 535.2 276.7 535.2 276C535.3 275.4 535.3 274.9 535.3 274.5ZM602.7 393.3C602.7 393.5 602.7 393.6 602.7 393.8C602.7 394.4 602.6 394.9 602.6 395.4C602.6 395.5 602.6 395.6 602.6 395.7C602.5 396.3 602.4 396.9 602.3 397.5C602.3 397.7 602.2 397.8 602.2 398C602.1 398.4 602 398.9 601.9 399.3C601.9 399.5 601.8 399.7 601.8 399.8C601.8 400 601.7 400.1 601.6 400.3C601.4 400.3 601.1 400.3 600.9 400.2C600.7 400.2 600.4 400.1 600.2 400.1C599.8 400 599.3 400 598.9 399.9C598.6 399.8 598.4 399.8 598.1 399.7C597.7 399.6 597.3 399.5 596.8 399.4C596.5 399.3 596.2 399.3 595.9 399.2C595.5 399.1 595 399 594.6 398.8C594.3 398.7 594 398.6 593.7 398.5C593.2 398.4 592.7 398.2 592.3 398C592 397.9 591.8 397.8 591.5 397.7C590.9 397.5 590.2 397.2 589.5 397C589.4 396.9 589.2 396.9 589.1 396.8C588.3 396.5 587.4 396.1 586.6 395.7C586.4 395.6 586.1 395.5 585.9 395.4C585.2 395.1 584.6 394.8 583.9 394.4L602.4 383.6C602.4 383.7 602.4 383.8 602.4 383.8C602.4 383.9 602.4 384 602.4 384.1C602.5 384.7 602.6 385.4 602.6 386C602.6 386.2 602.6 386.3 602.6 386.5C602.6 387 602.7 387.5 602.7 388.1C602.7 388.3 602.7 388.5 602.7 388.7C602.7 389.4 602.7 390.1 602.7 390.8C602.7 392 602.7 392.7 602.7 393.3Z" fill="#444444" stroke="black" stroke-miterlimit="10"/>
<path id="Vector_3" d="M748 424.1C748 424 748 424 748 423.9C748 422.8 748 421.8 748 420.7V420.6C748 420.2 748 419.8 747.9 419.5C747.9 418.9 747.9 418.2 747.8 417.6C747.8 417.5 747.8 417.4 747.8 417.3C747.8 416.9 747.7 416.5 747.7 416.1C747.7 415.6 747.6 415 747.6 414.5C747.6 414.3 747.6 414.2 747.5 414C747.5 413.6 747.4 413.2 747.4 412.8C747.4 412.4 747.3 412 747.3 411.6C747.3 411.3 747.2 411.1 747.2 410.8C747.1 410.4 747.1 410 747 409.6C747 409.3 746.9 409 746.9 408.8C746.8 408.4 746.8 408 746.7 407.6C746.6 407.2 746.6 406.9 746.5 406.5C746.5 406.3 746.4 406.2 746.4 406C746.3 405.3 746.1 404.6 746 403.9C746 403.7 745.9 403.6 745.9 403.4V403.3C745.7 402.4 745.5 401.5 745.3 400.7C745.3 400.6 745.2 400.5 745.2 400.4C745.1 400.1 745.1 399.8 745 399.6C744.9 399.1 744.8 398.6 744.6 398.2C744.5 397.9 744.4 397.7 744.4 397.4C744.3 397.1 744.2 396.8 744.1 396.4C744 396.1 744 395.9 743.9 395.6C743.7 395.1 743.6 394.5 743.4 394C743.3 393.8 743.3 393.6 743.2 393.4C743.2 393.3 743.2 393.3 743.1 393.2C742.8 392.4 742.6 391.6 742.3 390.9C742.3 390.8 742.2 390.7 742.2 390.5C742.1 390.3 742 390.1 741.9 389.8C741.7 389.4 741.6 389 741.4 388.6C741.2 388.2 741.1 387.8 740.9 387.4C740.8 387.2 740.7 387 740.6 386.8C740.6 386.7 740.5 386.6 740.5 386.4C740.2 385.7 739.9 385 739.6 384.2C739.6 384.1 739.5 384 739.4 383.9C739.3 383.7 739.2 383.5 739.1 383.3C738.9 382.9 738.7 382.5 738.5 382.1C738.3 381.7 738.2 381.4 738 381C737.9 380.7 737.7 380.5 737.6 380.2C737.5 380 737.4 379.9 737.4 379.7C737.1 379.1 736.8 378.5 736.5 377.9C736.4 377.6 736.2 377.4 736.1 377.1L736 377C735.9 376.8 735.8 376.6 735.7 376.4C735.2 375.4 734.6 374.4 734.1 373.5C734 373.4 733.9 373.2 733.9 373.1C733.5 372.4 733.1 371.7 732.6 370.9C731.7 369.4 730.7 368 729.8 366.5C729.7 366.3 729.6 366.2 729.5 366C729.4 365.9 729.3 365.7 729.2 365.6C728.5 364.5 727.7 363.5 727 362.5C726.9 362.4 726.9 362.3 726.8 362.2C726.8 362.2 726.8 362.2 726.7 362.1C726.5 361.8 726.2 361.4 725.9 361.1C725.5 360.6 725.1 360 724.6 359.5L724.5 359.4C724.3 359.2 724.1 358.9 723.9 358.7C723.5 358.2 723.1 357.7 722.7 357.2C722.6 357.1 722.5 357 722.4 356.9C722.2 356.6 721.9 356.3 721.7 356C721.4 355.7 721.1 355.3 720.8 355C720.6 354.8 720.5 354.6 720.3 354.4C720 354.1 719.7 353.8 719.4 353.5C719.2 353.3 719 353 718.8 352.8C718.6 352.5 718.3 352.3 718.1 352.1C717.8 351.8 717.5 351.4 717.1 351.1C716.9 350.9 716.8 350.8 716.6 350.6C716.3 350.3 716 350 715.7 349.8C715.3 349.4 715 349.1 714.6 348.7C714.5 348.6 714.3 348.4 714.2 348.3C713.9 348 713.6 347.7 713.3 347.5C712.9 347.1 712.5 346.7 712.1 346.4C712 346.3 711.9 346.2 711.7 346.1C711.4 345.8 711.1 345.6 710.8 345.3C710.3 344.9 709.9 344.5 709.4 344.1C709.3 344 709.1 343.9 709 343.8C708.7 343.6 708.4 343.3 708.1 343.1C707.6 342.7 707.1 342.3 706.6 341.9C706.4 341.8 706.3 341.6 706.1 341.5C705.8 341.3 705.5 341.1 705.3 340.9C704.8 340.5 704.3 340.1 703.7 339.7C703.5 339.6 703.3 339.4 703.2 339.3C702.9 339.1 702.7 338.9 702.4 338.8C701.8 338.4 701.3 338 700.7 337.6C700.5 337.4 700.3 337.3 700 337.1C699.8 336.9 699.5 336.8 699.3 336.7C698.7 336.3 698.1 335.9 697.5 335.5C697.2 335.3 697 335.2 696.7 335C696.5 334.9 696.3 334.8 696.2 334.7C695.5 334.3 694.9 333.9 694.2 333.5C693.9 333.3 693.6 333.1 693.3 333C693 332.8 692.8 332.7 692.5 332.5L648.2 306.9L627.1 319.2L626.7 443.2L668.8 467.5C669.7 468 670.6 468.5 671.5 469C671.6 469 671.7 469.1 671.7 469.1C672.3 469.4 672.9 469.7 673.5 470C673.9 470.2 674.3 470.4 674.7 470.6C674.8 470.6 674.8 470.7 674.9 470.7C675.4 470.9 675.9 471.2 676.3 471.4C676.8 471.6 677.2 471.8 677.7 472C677.8 472 677.8 472.1 677.9 472.1C678.3 472.3 678.7 472.4 679.1 472.6C679.6 472.8 680 473 680.5 473.2C680.6 473.2 680.7 473.3 680.8 473.3C681.2 473.5 681.6 473.6 681.9 473.7C682.3 473.9 682.7 474 683.2 474.2C683.3 474.2 683.5 474.3 683.6 474.3C684 474.4 684.3 474.5 684.7 474.7C685.1 474.8 685.4 474.9 685.8 475C686 475.1 686.1 475.1 686.3 475.1C686.7 475.2 687 475.3 687.4 475.4C687.7 475.5 688 475.6 688.3 475.6C688.5 475.7 688.7 475.7 689 475.7C689.4 475.8 689.7 475.9 690.1 475.9C690.3 475.9 690.6 476 690.8 476.1C691.1 476.2 691.3 476.2 691.6 476.2C692 476.3 692.3 476.3 692.7 476.4C692.9 476.4 693.1 476.5 693.2 476.5C693.5 476.5 693.7 476.6 694 476.6C694.4 476.6 694.8 476.7 695.2 476.7C695.3 476.7 695.5 476.7 695.6 476.7C695.9 476.7 696.1 476.7 696.4 476.7C696.8 476.7 697.2 476.7 697.7 476.7C697.8 476.7 698 476.7 698.1 476.7C698.3 476.7 698.5 476.7 698.8 476.7C699.3 476.7 699.8 476.7 700.3 476.6C700.5 476.6 700.6 476.6 700.8 476.6C701.1 476.6 701.5 476.5 701.8 476.5C701.9 476.5 702 476.5 702.1 476.5C702.6 476.4 703.2 476.3 703.7 476.2C703.8 476.2 703.9 476.1 704 476.1C704.2 476.1 704.5 476 704.7 475.9C705.2 475.8 705.6 475.7 706 475.5C706.2 475.4 706.5 475.4 706.7 475.3C706.9 475.2 707 475.2 707.2 475.2C707.5 475.1 707.8 475 708.1 474.9C708.3 474.8 708.5 474.7 708.7 474.7C709.3 474.4 709.9 474.2 710.6 473.8C711 473.6 711.3 473.4 711.7 473.2L732.8 460.9C733.4 460.6 733.9 460.2 734.4 459.9C734.5 459.8 734.7 459.7 734.8 459.6C735.2 459.3 735.7 458.9 736.1 458.6C736.2 458.5 736.2 458.5 736.3 458.4C736.8 458 737.2 457.6 737.7 457.1C737.8 457 737.9 456.9 738 456.7C738.4 456.3 738.7 455.9 739.1 455.5C739.2 455.4 739.3 455.3 739.4 455.2C739.8 454.7 740.2 454.2 740.6 453.6C740.7 453.5 740.8 453.4 740.8 453.2C741 452.9 741.1 452.7 741.3 452.4C741.4 452.2 741.5 452 741.6 451.8C741.7 451.6 741.9 451.4 742 451.1C742.2 450.7 742.5 450.2 742.7 449.8C742.8 449.6 742.9 449.4 743 449.2C743 449.1 743.1 449.1 743.1 449C743.4 448.4 743.6 447.9 743.9 447.3C744 447.2 744 447 744.1 446.9C744.2 446.6 744.3 446.3 744.4 446C744.5 445.8 744.5 445.6 744.6 445.5C744.8 445 745 444.4 745.2 443.8C745.3 443.6 745.4 443.4 745.4 443.1C745.4 443 745.5 442.8 745.5 442.7C745.6 442.2 745.8 441.6 745.9 441.1C746 440.8 746.1 440.5 746.1 440.3C746.1 440.2 746.1 440.1 746.2 440C746.3 439.5 746.4 438.9 746.5 438.4C746.6 438.1 746.6 437.7 746.7 437.4C746.7 437.3 746.7 437.2 746.7 437.1C746.8 436.6 746.9 436 746.9 435.5C747 435.1 747 434.8 747.1 434.4C747.1 434.3 747.1 434.2 747.1 434.1C747.2 433.5 747.2 433 747.3 432.4C747.3 432 747.4 431.6 747.4 431.2C747.4 431.1 747.4 431 747.4 431C747.4 430.4 747.5 429.8 747.5 429.1C747.5 428.7 747.6 428.3 747.6 427.8C747.6 427.7 747.6 427.7 747.6 427.6C747.6 426.8 747.6 426.1 747.7 425.3C748 424.9 748 424.5 748 424.1ZM726.6 443.2C726.6 443.7 726.5 444.2 726.5 444.7C726.4 445.3 726.4 445.8 726.3 446.4C726.2 446.9 726.2 447.3 726.1 447.8C726 448.3 726 448.9 725.9 449.4C725.8 449.8 725.7 450.3 725.7 450.7C725.6 451.2 725.5 451.8 725.4 452.3C725.3 452.7 725.2 453.1 725.1 453.5C725 454 724.8 454.6 724.7 455.1C724.6 455.5 724.5 455.8 724.4 456.2C724.2 456.8 724 457.3 723.8 457.9C723.6 458.4 723.5 458.9 723.3 459.3C723.2 459.4 723.2 459.6 723.1 459.7C722.8 460.4 722.5 461 722.2 461.6C722.1 461.8 722 462 721.9 462.2C721.7 462.6 721.4 463.1 721.2 463.5C721.1 463.7 720.9 463.9 720.8 464.2C720.8 464.2 720.8 464.3 720.7 464.3C720.5 464.3 720.3 464.3 720.1 464.3C719.7 464.3 719.4 464.3 719 464.3C718.6 464.3 718.2 464.3 717.7 464.3C717.3 464.3 716.9 464.3 716.5 464.2C716.1 464.2 715.7 464.1 715.3 464.1C714.8 464 714.4 464 713.9 463.9C713.5 463.8 713.2 463.8 712.8 463.7C712.3 463.6 711.8 463.5 711.4 463.4C711 463.3 710.7 463.2 710.3 463.2C709.8 463.1 709.3 463 708.8 462.8C708.4 462.7 708.1 462.6 707.7 462.5C707.2 462.3 706.7 462.2 706.1 462C705.7 461.9 705.4 461.8 705 461.6C704.5 461.4 703.9 461.2 703.4 461C703 460.9 702.6 460.7 702.3 460.6C701.7 460.4 701.2 460.1 700.6 459.9C700.2 459.7 699.8 459.6 699.4 459.4C699 459.2 698.7 459.1 698.3 458.9C698.4 458.8 698.6 458.8 698.7 458.7C698.9 458.6 699 458.6 699.2 458.5C699.7 458.3 700.2 458 700.6 457.8L721.7 445.5C721.8 445.4 722 445.3 722.1 445.3C722.6 445 723.1 444.6 723.6 444.2C723.7 444.1 723.9 444 724 443.8C724.3 443.5 724.7 443.2 725 442.9C725.2 442.8 725.3 442.6 725.4 442.5C725.7 442.2 726 441.8 726.4 441.4C726.5 441.3 726.6 441.2 726.6 441.1C726.6 441.2 726.6 441.2 726.6 441.3C726.7 442 726.6 442.6 726.6 443.2ZM662.4 353.7L669.3 357.7C669.7 358 670.2 358.2 670.6 358.5C671.1 358.8 671.6 359.1 672.1 359.4C672.4 359.6 672.8 359.8 673.1 360.1C673.6 360.4 674 360.7 674.5 361C674.8 361.2 675.2 361.5 675.5 361.7C675.9 362 676.4 362.3 676.8 362.6C677.1 362.8 677.5 363.1 677.8 363.3C678.2 363.6 678.6 363.9 679 364.2C679.3 364.5 679.7 364.7 680 365C680.4 365.3 680.8 365.6 681.1 365.9C681.4 366.2 681.8 366.4 682.1 366.7C682.5 367 682.8 367.3 683.1 367.6C683.4 367.9 683.8 368.2 684.1 368.5C684.4 368.8 684.7 369.1 685 369.4C685.3 369.7 685.7 370 686 370.4C686.3 370.7 686.6 370.9 686.8 371.2C687.1 371.5 687.5 371.9 687.8 372.2C688 372.5 688.3 372.7 688.5 373C688.9 373.4 689.2 373.7 689.5 374.1C689.7 374.3 689.9 374.6 690.2 374.8C690.6 375.2 690.9 375.6 691.3 376.1C691.5 376.3 691.7 376.5 691.9 376.7C692.3 377.2 692.7 377.7 693.1 378.2C693.2 378.4 693.4 378.5 693.5 378.7C693.9 379.2 694.3 379.7 694.6 380.2C694.8 380.4 694.9 380.6 695.1 380.9C695.1 381 695.2 381 695.2 381.1C695.8 381.9 696.4 382.7 697 383.6C697.2 383.8 697.3 384.1 697.5 384.3C698.3 385.4 699 386.6 699.7 387.7C700.1 388.3 700.5 389 700.8 389.6C701.2 390.3 701.6 391.1 702 391.8C702.1 392 702.2 392.2 702.3 392.4C702.4 392.6 702.5 392.8 702.6 393C702.9 393.6 703.2 394.1 703.5 394.7C703.6 394.9 703.7 395.1 703.8 395.3C704.1 395.9 704.4 396.5 704.7 397.1C704.8 397.2 704.8 397.4 704.9 397.5C705.4 398.7 705.9 399.9 706.4 401.1V401.2C706.9 402.4 707.3 403.6 707.7 404.8C707.7 404.9 707.8 405 707.8 405.1C708.2 406.3 708.5 407.4 708.8 408.6C708.8 408.7 708.9 408.9 708.9 409C709.2 410.2 709.5 411.3 709.8 412.5C709.8 412.6 709.8 412.7 709.9 412.8C710.2 414 710.4 415.2 710.6 416.4V416.5C710.8 417.7 710.9 418.9 711.1 420C711.1 420.2 711.1 420.4 711.2 420.6C711.3 421.7 711.4 422.9 711.5 424C711.5 424.2 711.5 424.5 711.5 424.8C711.6 426 711.6 427.2 711.6 428.4C711.6 428.7 711.6 428.9 711.6 429.2C711.6 429.9 711.6 430.7 711.5 431.4C711.5 431.8 711.5 432.1 711.4 432.5C711.4 433.1 711.3 433.6 711.3 434.2C711.3 434.6 711.2 434.9 711.2 435.3C711.2 435.8 711.1 436.3 711.1 436.7C711.1 437.1 711 437.4 711 437.8C710.9 438.3 710.9 438.7 710.8 439.1C710.7 439.4 710.7 439.8 710.6 440.1C710.5 440.5 710.4 441 710.3 441.4C710.2 441.7 710.2 442 710.1 442.3C710 442.7 709.9 443.2 709.8 443.6C709.7 443.9 709.6 444.2 709.6 444.4C709.4 444.9 709.3 445.5 709.1 446C709 446.2 709 446.3 708.9 446.5C708.8 446.7 708.7 447 708.6 447.2C708.4 447.2 708.2 447.1 708.1 447.1C707.7 447 707.4 447 707 446.9C706.8 446.9 706.5 446.8 706.3 446.7C705.9 446.6 705.6 446.5 705.2 446.4C704.9 446.3 704.7 446.3 704.4 446.2C704 446.1 703.6 446 703.3 445.9C703 445.8 702.8 445.7 702.5 445.6C702.1 445.5 701.7 445.3 701.3 445.2C701 445.1 700.8 445 700.5 444.9C700.1 444.7 699.7 444.6 699.3 444.4C699 444.3 698.7 444.2 698.4 444C698 443.8 697.6 443.6 697.2 443.5C696.9 443.3 696.6 443.2 696.2 443C695.8 442.8 695.5 442.6 695.1 442.5C694.7 442.3 694.3 442.1 693.9 441.9C693.2 441.5 692.5 441.1 691.8 440.7L661.8 423.4L662.4 353.7ZM654.1 334.1L648.4 337.4V330.8L654.1 334.1Z" fill="#444444" stroke="black" stroke-width="0.5" stroke-miterlimit="10"/>
</g>
<g id="Group_4">
<path id="Vector_4" d="M811.7 331.5C814.9 333.3 817.5 337.9 817.5 341.5V342.6C817.5 346.3 814.9 347.8 811.7 345.9L470 148.6C466.8 146.8 464.2 142.2 464.2 138.6V137.5C464.2 133.8 466.8 132.3 470 134.2L811.7 331.5Z" fill="black"/>
</g>
<path id="Vector_5" d="M848.4 330.4C848.4 330.1 848.4 329.9 848.4 329.6C848.4 329.5 848.4 329.4 848.4 329.2C848.4 329.1 848.4 329.1 848.4 329C848.4 328.9 848.4 328.8 848.4 328.7C848.4 328.4 848.3 328.2 848.3 327.9C848.3 327.6 848.2 327.4 848.2 327.1C848.2 326.9 848.1 326.6 848.1 326.4C848 326.1 848 325.9 847.9 325.6C847.9 325.5 847.9 325.4 847.8 325.3C847.8 325.2 847.8 325.2 847.8 325.1C847.8 325 847.7 324.9 847.7 324.8C847.6 324.5 847.6 324.2 847.5 324C847.4 323.8 847.4 323.6 847.3 323.4V323.3V323.2C847.2 322.9 847.1 322.7 847 322.4C846.9 322.1 846.8 321.9 846.7 321.6C846.7 321.5 846.7 321.5 846.6 321.4V321.3C846.5 321.1 846.5 321 846.4 320.8C846.3 320.5 846.2 320.3 846.1 320C846 319.8 845.9 319.6 845.9 319.4V319.3V319.2C845.8 318.9 845.7 318.7 845.6 318.4C845.5 318.1 845.3 317.8 845.2 317.6C845.2 317.6 845.2 317.5 845.1 317.5C845.1 317.4 845 317.4 845 317.3C844.9 317.1 844.8 316.9 844.7 316.7C844.6 316.4 844.4 316.2 844.2 315.9C844.1 315.8 844 315.6 844 315.5C844 315.4 843.9 315.4 843.9 315.3C843.8 315.1 843.6 314.8 843.5 314.6C843.3 314.3 843.1 313.9 842.9 313.6C842.9 313.5 842.8 313.5 842.8 313.4C842.5 312.9 842.2 312.5 841.8 312C841.6 311.7 841.3 311.4 841.1 311.1C840.9 310.9 840.7 310.6 840.5 310.4C840.3 310.2 840.1 309.9 839.9 309.7C839.7 309.5 839.5 309.2 839.3 309L839.2 308.9L839.1 308.8C839 308.6 838.8 308.5 838.7 308.3C838.5 308.1 838.3 307.9 838 307.6C837.9 307.5 837.9 307.5 837.8 307.4C837.7 307.4 837.7 307.3 837.6 307.3C837.5 307.2 837.4 307.1 837.3 307C837.1 306.8 836.8 306.6 836.6 306.4C836.5 306.3 836.4 306.2 836.3 306.2C836.2 306.2 836.2 306.1 836.1 306.1C836 306 835.9 306 835.9 305.9C835.7 305.7 835.4 305.5 835.2 305.4C835 305.3 834.9 305.2 834.7 305C834.7 305 834.6 305 834.6 304.9C834.6 304.9 834.5 304.9 834.5 304.8C834.3 304.6 834.1 304.5 833.8 304.4C833.6 304.3 833.4 304.1 833.1 304C833 304 833 303.9 832.9 303.9L438.9 76.4C438.7 76.3 438.6 76.2 438.4 76.1C438.2 76 438 75.9 437.8 75.8C437.7 75.7 437.5 75.7 437.4 75.6H437.3C437.3 75.6 437.2 75.6 437.2 75.5C437 75.4 436.8 75.3 436.6 75.2C436.4 75.1 436.2 75 436 75H435.9H435.8C435.7 75 435.5 74.9 435.4 74.9C435.2 74.8 435 74.8 434.8 74.7C434.7 74.7 434.6 74.7 434.5 74.6H434.4C434.3 74.6 434.3 74.6 434.2 74.6C434 74.6 433.7 74.5 433.5 74.5C433.4 74.5 433.2 74.5 433.1 74.5H433H432.9C432.7 74.5 432.4 74.5 432.2 74.5C432.1 74.5 432 74.5 431.9 74.5C431.8 74.5 431.7 74.5 431.7 74.5C431.6 74.5 431.5 74.5 431.5 74.5C431.2 74.5 430.9 74.6 430.6 74.6C430.5 74.6 430.5 74.6 430.4 74.7C430.1 74.8 429.8 74.8 429.5 74.9H429.4C429.4 74.9 429.3 74.9 429.3 75C428.9 75.1 428.6 75.3 428.3 75.5L407.2 87.8C404.4 89.4 402.6 92.9 402.6 97.9L401 388.2C401 398.1 408 410.3 416.6 415.3L810.6 642.8C815.2 645.5 819.4 645.5 822.3 643.5C822.1 643.6 822 643.8 821.8 643.9L842.9 631.6C843.2 631.4 843.5 631.2 843.8 631C843.9 630.9 844 630.9 844.1 630.8C844.3 630.6 844.5 630.4 844.7 630.2C844.8 630.1 844.9 630 844.9 629.9C845.1 629.7 845.3 629.4 845.5 629.1C845.5 629 845.6 629 845.6 629C845.8 628.7 846 628.3 846.2 627.9V627.8C846.3 627.6 846.4 627.3 846.5 627C846.5 626.9 846.6 626.7 846.6 626.6C846.6 626.5 846.7 626.4 846.7 626.4C846.7 626.3 846.7 626.3 846.8 626.2C846.9 625.9 846.9 625.7 847 625.4C847 625.3 847 625.2 847.1 625.1C847.1 625 847.1 625 847.1 624.9C847.1 624.8 847.1 624.7 847.2 624.6C847.2 624.4 847.3 624.1 847.3 623.9C847.3 623.8 847.3 623.6 847.3 623.5V623.4C847.3 623.3 847.3 623.3 847.3 623.2C847.3 623 847.3 622.7 847.3 622.5C847.3 622.3 847.3 622 847.3 621.7L848.1 331.4C848.4 330.9 848.4 330.7 848.4 330.4ZM822.9 643C823 642.9 823.1 642.8 823.3 642.7C823.2 642.8 823.1 642.9 822.9 643C823 643 823 643 822.9 643ZM823.8 642.1C823.9 642 824 641.8 824.1 641.7C824 641.8 823.9 642 823.8 642.1ZM824.5 641.2C824.6 641 824.7 640.8 824.9 640.6C824.8 640.8 824.6 641 824.5 641.2ZM436.6 398.1C436.2 397.8 435.8 397.5 435.4 397.2L435.3 397.1C435 396.8 434.6 396.5 434.3 396.2L434.2 396.1C433.9 395.8 433.5 395.4 433.2 395.1L433.1 395C432.7 394.6 432.4 394.2 432.1 393.8C431.8 393.4 431.4 393 431.1 392.5C431.1 392.5 431.1 392.5 431.1 392.4C430.8 392 430.6 391.6 430.3 391.2C430.1 390.9 430 390.7 429.8 390.4C429.7 390.2 429.5 390 429.4 389.8C429.3 389.7 429.3 389.6 429.2 389.5C429 389.1 428.8 388.7 428.6 388.4C428.6 388.4 428.6 388.3 428.5 388.3C428.3 387.8 428 387.4 427.8 386.9C427.8 386.9 427.8 386.9 427.8 386.8C427.6 386.3 427.4 385.9 427.2 385.4V385.3C427 384.8 426.9 384.3 426.7 383.9V383.8C426.6 383.3 426.4 382.9 426.3 382.4V382.3C426.2 381.8 426.1 381.3 426 380.9C425.9 380.4 425.9 379.9 425.8 379.5V379.4C425.8 378.9 425.7 378.5 425.7 378L426.4 123.6L453.1 139C453.1 139 453.2 139 453.2 139.1C453.2 139.1 453.3 139.1 453.3 139.2C453.3 139.2 453.4 139.2 453.4 139.3C453.4 139.3 453.5 139.3 453.5 139.4C453.5 139.4 453.6 139.4 453.6 139.5H453.7H453.8H453.9C454 139.5 454 139.5 454.1 139.5H454.2C454.3 139.5 454.3 139.5 454.4 139.5C454.5 139.5 454.5 139.5 454.6 139.5C454.7 139.5 454.7 139.5 454.8 139.5C454.9 139.5 455 139.5 455 139.4C455.1 139.4 455.2 139.3 455.3 139.3L476.2 127.1L476.8 127.4L465.6 133.9C465.4 134 465.3 134.1 465.1 134.3L465 134.4C464.9 134.5 464.7 134.7 464.6 134.9C464.5 135 464.4 135.2 464.4 135.3C464.4 135.4 464.3 135.5 464.3 135.6V135.7V135.8V135.9C464.3 136 464.2 136.1 464.2 136.2V136.3C464.2 136.3 464.2 136.3 464.2 136.4V136.5C464.2 136.6 464.2 136.7 464.2 136.8C464.2 136.8 464.2 136.9 464.2 137C464.2 137 464.2 137 464.2 137.1C464.2 137.1 464.2 137.1 464.2 137.2C464.2 137.3 464.2 137.4 464.2 137.5C464.2 137.6 464.2 137.7 464.2 137.8V138.9C464.2 139 464.2 139.1 464.2 139.2C464.2 139.3 464.2 139.4 464.2 139.5V139.6C464.2 139.6 464.2 139.6 464.2 139.7V139.8C464.2 139.9 464.2 140 464.2 140.1C464.2 140.2 464.2 140.3 464.2 140.4C464.2 140.5 464.2 140.6 464.2 140.7C464.2 140.8 464.2 140.9 464.3 141V141.1C464.3 141.1 464.3 141.1 464.3 141.2V141.3C464.3 141.4 464.4 141.5 464.4 141.6C464.4 141.7 464.4 141.8 464.5 141.8C464.5 141.9 464.6 142 464.6 142.1C464.6 142.2 464.7 142.3 464.7 142.4C464.7 142.5 464.8 142.6 464.8 142.7C464.8 142.8 464.9 142.9 464.9 143C464.9 143 464.9 143.1 465 143.1C465 143.1 465 143.2 465.1 143.2C465.1 143.3 465.2 143.4 465.2 143.5C465.2 143.6 465.3 143.7 465.3 143.8C465.4 143.9 465.4 144 465.5 144.2C465.5 144.3 465.6 144.3 465.6 144.4C465.6 144.4 465.6 144.4 465.6 144.5C465.6 144.6 465.7 144.6 465.7 144.7C465.7 144.7 465.7 144.7 465.7 144.8C465.7 144.9 465.8 145 465.9 145C466 145.1 466.1 145.3 466.1 145.4C466.1 145.4 466.1 145.4 466.1 145.5C466.2 145.7 466.3 145.8 466.4 146C466.5 146.1 466.6 146.2 466.7 146.3C466.8 146.4 466.8 146.5 466.9 146.6C467 146.7 467 146.8 467.1 146.9C467.2 147 467.2 147.1 467.3 147.2C467.4 147.3 467.4 147.3 467.5 147.4C467.6 147.5 467.7 147.6 467.7 147.6C467.7 147.6 467.7 147.6 467.8 147.7C467.8 147.7 467.8 147.7 467.9 147.8L468 147.9C468.1 148 468.2 148.1 468.3 148.1L468.4 148.2C468.4 148.2 468.4 148.2 468.5 148.2L468.6 148.3C468.7 148.4 468.8 148.4 468.9 148.5C469 148.5 469 148.6 469.1 148.6C469.2 148.7 469.3 148.7 469.3 148.8C469.4 148.9 469.5 148.9 469.5 148.9C469.5 148.9 469.5 148.9 469.6 148.9L811.3 346.2C811.4 346.2 811.4 346.3 811.5 346.3C811.6 346.3 811.7 346.4 811.7 346.4C811.8 346.4 811.8 346.5 811.9 346.5C812 346.5 812.1 346.6 812.1 346.6C812.2 346.6 812.3 346.7 812.3 346.7H812.4C812.5 346.7 812.6 346.7 812.6 346.8H812.7C812.7 346.8 812.7 346.8 812.8 346.8C812.9 346.8 813 346.8 813.1 346.8C813.2 346.8 813.2 346.8 813.3 346.8C813.4 346.8 813.5 346.8 813.6 346.8H813.7H813.8H813.9C814 346.8 814.1 346.8 814.2 346.8H814.3C814.4 346.8 814.5 346.8 814.6 346.7C814.8 346.6 814.9 346.6 815 346.5L822.9 341.9L822.1 621.4L437.8 398.9C437.4 398.7 437 398.4 436.6 398.1ZM408.8 86.9C408.6 86.9 408.4 87 408.2 87.1C408.3 87.1 408.4 87 408.5 87C408.7 87 408.7 86.9 408.8 86.9ZM408.2 92.6C408.3 92.6 408.3 92.6 408.2 92.6V92.6ZM416 88C415.8 87.9 415.7 87.9 415.5 87.8C415.6 87.9 415.8 88 416 88C415.9 88 416 88 416 88ZM414.4 87.4C414.2 87.3 414 87.3 413.9 87.2C414 87.3 414.2 87.3 414.4 87.4ZM412.9 87C412.7 87 412.5 86.9 412.3 86.9C412.5 86.9 412.7 86.9 412.9 87ZM411.4 86.8C411.2 86.8 411 86.8 410.8 86.8C411 86.8 411.2 86.8 411.4 86.8ZM410 86.8C409.8 86.8 409.7 86.8 409.5 86.9C409.7 86.8 409.8 86.8 410 86.8ZM426.5 98.1L426.7 98.2L426.5 98.3V98.1ZM407.6 93.2L407.5 93.3L407.6 93.2ZM406.9 94C406.9 94.1 406.9 94.1 406.9 94C406.9 94.1 406.9 94 406.9 94C407 94 407 94 406.9 94ZM405.5 98.4C405.5 98.5 405.5 98.5 405.5 98.4C405.5 98.5 405.5 98.5 405.5 98.4ZM814.3 640.1C814.2 640.1 814.2 640.1 814.3 640.1V640.1ZM815.4 640.3C815.3 640.3 815.4 640.3 815.4 640.3V640.3ZM819.3 639.5C819.2 639.6 819 639.6 818.8 639.7C819 639.6 819.1 639.6 819.3 639.5ZM826.3 635.4C826.3 635.4 826.3 635.5 826.3 635.4C826.3 635.5 826.3 635.5 826.3 635.4C826.3 635.5 826.3 635.4 826.3 635.4ZM826.1 637.1C826.2 636.8 826.2 636.4 826.3 636.1C826.2 636.4 826.2 636.8 826.1 637.1ZM825.7 638.6C825.8 638.3 825.8 638.1 825.9 637.8C825.9 638 825.8 638.3 825.7 638.6ZM825.2 640C825.3 639.8 825.4 639.5 825.5 639.3C825.4 639.5 825.3 639.7 825.2 640ZM407.5 87.3C407.4 87.3 407.3 87.4 407.1 87.5C407.2 87.4 407.3 87.4 407.5 87.3ZM816.4 640.3C816.5 640.3 816.5 640.3 816.5 640.3C816.4 640.3 816.4 640.3 816.4 640.3Z" fill="black"/>
</g>
</g>
<g id="pozadi">
<path id="Vector_6" d="M811.6 320.4C818.3 324.3 823.7 333.7 823.7 341.4L822.9 631.7C822.9 639.4 817.4 642.5 810.7 638.6L416.7 411.1C410 407.2 404.6 397.8 404.6 390.1L405.4 99.8C405.4 92.1 410.9 89 417.6 92.9L811.6 320.4ZM710.7 473.6C721.4 468.1 726.8 455.6 726.8 436.2C726.9 417.8 721.7 400.1 711.3 383.1C701.3 366.7 688 353.7 671.5 344.1L627.2 318.5L626.8 442.5L668.9 466.8C686.3 476.9 700.2 479.1 710.7 473.6ZM598.8 406C601.4 402.5 602.7 397.5 602.7 391.2C602.7 384.9 601.7 379.2 599.6 374.1C597.5 369 594.3 363.7 589.8 358.1C585.4 352.5 577.5 345.1 566 336.1L552.4 325.6C548 322.2 544.1 318.8 540.7 315.4C533 307.9 529.2 300.9 529.2 294.4C529.2 288.2 532.3 285.1 538.3 285.1C543.5 285.1 549.5 287.1 556.2 291C559.1 292.7 562.2 294.7 565.3 297.1C575.3 304.4 584 312.7 591.3 322L596.5 310.7C593.1 306.7 589.9 303 586.8 299.9C578.1 290.8 568.3 283.1 557.5 276.8C546.2 270.3 536.3 267.7 528 269.1C518.6 270.7 513.9 277 513.9 288.2C513.9 296.4 516.4 304.4 521.5 312.2C527 320.7 536.6 330.3 550.5 341L561.4 349.5C564.9 352.3 568.2 355 571.3 357.8C581.9 367.2 587.1 376 587.1 384.2C587.1 392.2 583.9 396.3 577.6 396.5C574.8 396.6 571.6 395.9 567.9 394.6C564.3 393.2 560.7 391.6 557.3 389.6C553.9 387.6 550.5 385.3 547.2 382.7C537.5 374.8 527.9 364.7 518.4 352.2L511.7 362.2C514.7 366.5 517.9 370.6 521.4 374.7C532.1 387 543.5 396.6 555.7 403.6C568.8 411.1 579.5 414.1 588 412.5C592.7 411.7 596.2 409.6 598.8 406ZM817.5 342.6V341.5C817.5 337.8 814.9 333.3 811.7 331.5L470 134.2C466.8 132.4 464.2 133.8 464.2 137.5V138.6C464.2 142.3 466.8 146.8 470 148.6L811.7 345.9C814.8 347.7 817.5 346.2 817.5 342.6ZM456.6 136.9V130.5C456.6 128.3 455 125.6 453.1 124.5L418.6 104.6C416.7 103.5 415.1 104.4 415.1 106.6V113C415.1 115.2 416.7 117.9 418.6 119L453.1 138.9C455 140 456.6 139.1 456.6 136.9Z" fill="white"/>
<g id="Group_5">
<path id="Vector_7" d="M669.3 357.6C682.1 365 692.3 375 700.1 387.7C708.1 400.7 712 414.3 712 428.6C712 443.4 708.3 453 701.1 457.5C693.8 462 683.8 460.6 671.1 453.3L641.1 436L641.4 341.4L669.3 357.6Z" fill="white"/>
</g>
</g>
<g id="pismena-kostra">
<path id="Vector_8" d="M624.2 378.5C624.2 378.3 624.2 378.1 624.2 377.9C624.2 377.6 624.2 377.4 624.2 377.1C624.2 376.8 624.2 376.5 624.1 376.2C624.1 376 624.1 375.9 624.1 375.7C624.1 375.6 624.1 375.5 624.1 375.4C624.1 374.9 624 374.4 623.9 373.9C623.9 373.8 623.9 373.7 623.9 373.7C623.9 373.6 623.9 373.5 623.8 373.3C623.8 373 623.7 372.8 623.7 372.5C623.6 372.1 623.6 371.8 623.5 371.4C623.5 371.3 623.5 371.3 623.5 371.2V371.1C623.4 370.7 623.3 370.2 623.2 369.8C623.2 369.6 623.1 369.4 623.1 369.2C623.1 369.1 623.1 369 623 368.9C623 368.8 623 368.7 622.9 368.6C622.8 368.2 622.7 367.8 622.6 367.5C622.6 367.3 622.5 367.2 622.5 367.1C622.5 367 622.4 366.9 622.4 366.8C622.4 366.7 622.3 366.6 622.3 366.4C622.2 366.1 622.1 365.7 622 365.4C621.9 365.2 621.9 365.1 621.8 364.9C621.8 364.8 621.8 364.8 621.7 364.7C621.7 364.6 621.6 364.5 621.6 364.5C621.5 364.2 621.4 363.9 621.3 363.6C621.2 363.3 621.1 363.1 621 362.8C620.9 362.5 620.7 362.1 620.6 361.8C620.5 361.5 620.3 361.2 620.2 360.9C620.2 360.9 620.2 360.8 620.1 360.8C620.1 360.8 620.1 360.8 620.1 360.7C619.9 360.3 619.7 359.9 619.5 359.5C619.4 359.3 619.3 359.2 619.3 359C619.2 358.8 619.1 358.7 619 358.5C618.9 358.3 618.8 358.2 618.8 358C618.7 357.8 618.6 357.6 618.5 357.4C618.3 357 618 356.6 617.8 356.2C617.7 356.1 617.6 355.9 617.6 355.8C617.5 355.6 617.4 355.5 617.3 355.3C617.1 354.9 616.8 354.5 616.6 354.1C616.4 353.8 616.2 353.5 616 353.1C615.7 352.7 615.5 352.3 615.2 351.9C615.1 351.7 614.9 351.5 614.8 351.3C614.7 351.2 614.7 351.1 614.6 351C614 350.1 613.4 349.2 612.7 348.3C612.2 347.6 611.7 346.9 611.1 346.2C611.1 346.1 611 346.1 611 346C610.9 345.8 610.7 345.7 610.6 345.5C610.5 345.3 610.3 345.1 610.2 345C610.2 345 610.2 344.9 610.1 344.9C610 344.8 609.9 344.7 609.8 344.5C609.6 344.2 609.4 344 609.1 343.7L609 343.6C608.9 343.5 608.8 343.4 608.7 343.3C608.4 343 608.1 342.6 607.8 342.3C607.7 342.2 607.7 342.1 607.6 342.1C607.5 342 607.5 342 607.4 341.9C606.9 341.4 606.4 340.8 605.8 340.2C605.4 339.8 605 339.4 604.6 339C604.5 338.9 604.3 338.7 604.2 338.6C603.9 338.3 603.7 338.1 603.4 337.8C603.4 337.8 603.3 337.8 603.3 337.7C602.8 337.2 602.3 336.7 601.7 336.2C601.6 336.1 601.5 336 601.4 335.9C601 335.5 600.5 335.1 600 334.6C599.9 334.5 599.9 334.5 599.8 334.5C599.7 334.4 599.6 334.3 599.5 334.2C598.9 333.6 598.2 333.1 597.6 332.5C597.4 332.4 597.3 332.2 597.1 332.1C596.3 331.4 595.5 330.8 594.7 330.1C594.6 330 594.6 330 594.5 329.9C594.2 329.7 594 329.5 593.7 329.2C593.4 329 593.2 328.8 592.9 328.6C592.5 328.3 592.1 328 591.7 327.6C591.4 327.4 591.2 327.2 590.9 327C590.5 326.6 590 326.3 589.6 325.9C589.4 325.7 589.2 325.6 589 325.4C588.3 324.9 587.6 324.3 586.9 323.7L573.3 313.2C572.3 312.4 571.3 311.6 570.3 310.8C570.2 310.7 570 310.6 569.9 310.5C569.3 310 568.7 309.5 568 308.9C567.4 308.4 566.8 307.8 566.2 307.3C565.8 306.9 565.3 306.5 564.9 306.1C564.4 305.7 564 305.3 563.5 304.8C562.9 304.2 562.3 303.6 561.7 303.1C561.3 302.7 560.9 302.3 560.5 301.9C560.3 301.7 560.1 301.5 559.9 301.3C559.7 301.1 559.4 300.8 559.2 300.6C559.1 300.5 558.9 300.3 558.8 300.2C558.6 299.9 558.3 299.7 558.1 299.4C558 299.3 557.9 299.1 557.8 299C557.6 298.7 557.3 298.5 557.1 298.2C557 298.1 556.9 298 556.8 297.9C556.5 297.6 556.3 297.2 556 296.9L555.9 296.8C555.8 296.7 555.8 296.6 555.7 296.5C555.5 296.2 555.2 295.8 555 295.5C554.9 295.4 554.9 295.3 554.8 295.2C554.5 294.8 554.3 294.4 554 294C553.9 293.8 553.8 293.6 553.6 293.4C553.5 293.3 553.4 293.1 553.4 293C553.2 292.7 553 292.3 552.9 292V291.9C552.7 291.5 552.6 291.2 552.4 290.8C552.4 290.8 552.4 290.8 552.4 290.7C552.2 290.3 552.1 290 552 289.6V289.5C551.9 289.2 551.8 288.9 551.7 288.7C552.1 288.9 552.4 289.1 552.8 289.2C553.1 289.3 553.3 289.5 553.6 289.6C554.3 290 555 290.4 555.8 290.8C556.2 291 556.6 291.3 557.1 291.6C557.6 291.9 558.1 292.2 558.5 292.5C558.8 292.7 559.1 292.9 559.5 293.1C560 293.4 560.6 293.8 561.1 294.2C561.4 294.4 561.7 294.6 562.1 294.9C562.7 295.3 563.3 295.8 563.9 296.2C564.3 296.5 564.7 296.8 565.1 297.1C566.4 298.1 567.7 299.1 569 300.1C569.5 300.5 570 300.9 570.6 301.4C571.2 301.9 571.9 302.4 572.5 303C573.1 303.5 573.6 303.9 574.1 304.4C574.7 304.9 575.2 305.4 575.8 305.9C576.4 306.4 576.9 306.9 577.5 307.5C578 308 578.5 308.4 579 308.9C579.6 309.5 580.3 310.1 580.9 310.7C581.3 311.1 581.6 311.4 582 311.8C583 312.8 583.9 313.7 584.8 314.7L584.9 314.8C585.8 315.7 586.6 316.7 587.4 317.6C587.7 317.9 587.9 318.2 588.2 318.5C589 319.4 589.7 320.3 590.4 321.2L594.4 318.9L591.4 325.3L612.5 313L618.6 299.9L617.8 298.9C617.7 298.8 617.6 298.7 617.5 298.5C616.8 297.7 616.1 296.9 615.4 296.1C615.2 295.9 615 295.7 614.9 295.5C614.5 295.1 614.2 294.6 613.8 294.2C613.6 293.9 613.4 293.7 613.1 293.5C612.9 293.3 612.7 293.1 612.5 292.9C611.8 292.1 611.1 291.3 610.4 290.6C609.6 289.7 608.8 288.9 608 288.1C607.5 287.6 607.1 287.1 606.6 286.7C606.2 286.3 605.8 285.9 605.4 285.5C605 285.1 604.6 284.7 604.3 284.4C604.1 284.2 604 284.1 603.8 283.9C603.2 283.4 602.7 282.8 602.1 282.3C601.7 282 601.4 281.6 601 281.3C600.9 281.2 600.8 281.1 600.7 281.1C599.9 280.4 599.1 279.7 598.4 279.1C598.1 278.9 597.9 278.6 597.6 278.4C597.6 278.4 597.5 278.4 597.5 278.3C596.4 277.4 595.2 276.4 594.1 275.5C594.1 275.5 594.1 275.5 594 275.5C593.7 275.3 593.4 275 593.1 274.8C592.3 274.1 591.4 273.5 590.6 272.9C590.5 272.9 590.5 272.8 590.4 272.8C589.9 272.4 589.4 272.1 588.9 271.8C588.2 271.3 587.6 270.8 586.9 270.4C586.8 270.3 586.7 270.3 586.6 270.2C586 269.8 585.5 269.5 584.9 269.1C584.3 268.7 583.7 268.3 583.1 267.9C583 267.8 582.8 267.7 582.7 267.7C582.1 267.3 581.5 266.9 580.9 266.6C580.3 266.3 579.8 265.9 579.2 265.6C578.9 265.4 578.6 265.2 578.3 265.1C577.6 264.7 576.9 264.3 576.1 263.9H576C575.2 263.5 574.4 263.1 573.7 262.7C573.6 262.7 573.5 262.6 573.5 262.6C573.3 262.5 573.1 262.4 573 262.3C572.5 262 572 261.8 571.4 261.6C571.3 261.5 571.1 261.5 571 261.4C570.9 261.3 570.7 261.3 570.6 261.2C570.1 261 569.6 260.8 569.1 260.6C568.9 260.5 568.7 260.4 568.6 260.4C568.5 260.4 568.4 260.3 568.3 260.3C567.8 260.1 567.3 259.9 566.8 259.7C566.6 259.6 566.5 259.6 566.3 259.5H566.2C565.5 259.3 564.8 259 564.1 258.8C564 258.8 563.9 258.8 563.9 258.7C563.3 258.5 562.7 258.4 562.1 258.2C562 258.2 562 258.2 561.9 258.2C561.7 258.2 561.6 258.1 561.4 258.1C560.9 258 560.5 257.9 560 257.8C559.9 257.8 559.8 257.8 559.7 257.7C559.6 257.7 559.4 257.7 559.3 257.6C558.9 257.5 558.4 257.4 558 257.4C557.9 257.4 557.7 257.3 557.6 257.3C557.5 257.3 557.4 257.3 557.3 257.3C556.8 257.2 556.3 257.2 555.8 257.1C555.7 257.1 555.5 257.1 555.4 257.1H555.3C554.6 257.1 553.9 257 553.2 257H553.1C553 257 552.9 257 552.8 257C552.2 257 551.6 257 551 257.1C550.9 257.1 550.8 257.1 550.7 257.1C550.6 257.1 550.6 257.1 550.5 257.1C549.9 257.2 549.2 257.2 548.6 257.4C548.4 257.4 548.1 257.5 547.9 257.5C547.7 257.5 547.5 257.6 547.2 257.7C547 257.7 546.8 257.8 546.6 257.8C546.2 257.9 545.8 258 545.4 258.2C545.3 258.2 545.2 258.3 545.1 258.3C545.1 258.3 545.1 258.3 545 258.3C544.7 258.4 544.3 258.6 544 258.7C543.8 258.8 543.7 258.8 543.5 258.9C543 259.1 542.5 259.4 542.1 259.6L521 271.9C521.5 271.6 521.9 271.4 522.4 271.2C522.6 271.1 522.7 271.1 522.9 271C523.2 270.9 523.6 270.7 523.9 270.6C524 270.6 524.1 270.5 524.2 270.5C524.6 270.4 525 270.2 525.4 270.1C525.6 270.1 525.8 270 526 270C526.5 269.9 526.9 269.8 527.4 269.7C528 269.6 528.7 269.5 529.3 269.4C529.5 269.4 529.7 269.4 529.8 269.4C530.3 269.4 530.7 269.3 531.2 269.3L522.3 274.5C521.9 274.7 521.5 275 521.1 275.3C521 275.4 520.9 275.4 520.8 275.5C520.4 275.8 520.1 276.1 519.7 276.4C519.7 276.4 519.7 276.4 519.6 276.5C519.3 276.8 519 277.1 518.7 277.5C518.6 277.6 518.6 277.7 518.5 277.8C518.2 278.2 517.9 278.5 517.7 278.9V279C517.4 279.4 517.2 279.9 517 280.3C517 280.4 516.9 280.4 516.9 280.5V280.6C516.7 281 516.5 281.4 516.4 281.8C516.4 281.9 516.4 281.9 516.3 282C516.2 282.3 516.1 282.6 516 283V283.1C516 283.2 515.9 283.4 515.9 283.5C515.8 283.7 515.8 283.9 515.7 284.2V284.3C515.7 284.5 515.6 284.6 515.6 284.8C515.6 285 515.5 285.2 515.5 285.4V285.5C515.5 285.7 515.4 285.9 515.4 286.1C515.4 286.3 515.3 286.5 515.3 286.6V286.7C515.3 286.9 515.2 287.2 515.2 287.5C515.2 287.7 515.2 287.8 515.2 288C515.2 288 515.2 288 515.2 288.1C515.2 288.5 515.1 288.9 515.1 289.3V289.4C515.1 289.9 515.1 290.3 515.1 290.8V290.9C515.1 291.3 515.1 291.8 515.1 292.2V292.3C515.1 292.5 515.1 292.6 515.1 292.8C515.1 293 515.1 293.3 515.1 293.5C515.1 293.6 515.1 293.6 515.1 293.7C515.1 293.9 515.1 294 515.1 294.2C515.1 294.4 515.1 294.5 515.1 294.7C515.1 294.8 515.1 295 515.1 295.1C515.1 295.3 515.1 295.4 515.2 295.6C515.2 295.7 515.2 295.8 515.2 295.9C515.2 296.1 515.3 296.3 515.3 296.6C515.3 296.7 515.3 296.8 515.3 296.9V297C515.4 297.4 515.4 297.7 515.5 298.1V298.2C515.5 298.3 515.5 298.4 515.6 298.5C515.6 298.7 515.7 299 515.7 299.2C515.7 299.3 515.8 299.4 515.8 299.5C515.8 299.6 515.9 299.8 515.9 299.9C515.9 300 516 300.1 516 300.2C516.1 300.4 516.1 300.7 516.2 300.9C516.2 301 516.2 301.1 516.3 301.1V301.2C516.4 301.5 516.5 301.9 516.6 302.2C516.6 302.3 516.6 302.3 516.7 302.4C516.7 302.5 516.8 302.6 516.8 302.7C516.9 302.9 516.9 303 517 303.2C517.1 303.4 517.1 303.6 517.2 303.8C517.2 303.9 517.3 304 517.3 304.1V304.2C517.4 304.5 517.5 304.8 517.6 305.1C517.6 305.2 517.7 305.2 517.7 305.3C517.7 305.4 517.8 305.5 517.8 305.6C517.9 305.7 517.9 305.9 518 306C518.1 306.2 518.2 306.5 518.3 306.7V306.8C518.4 307.1 518.6 307.4 518.7 307.7C518.7 307.8 518.8 307.9 518.8 308C518.9 308.1 518.9 308.2 519 308.3C519.1 308.4 519.1 308.5 519.2 308.7C519.3 308.9 519.4 309.1 519.5 309.3C519.6 309.4 519.6 309.6 519.7 309.7C519.7 309.8 519.8 309.8 519.8 309.9C519.9 310 519.9 310.2 520 310.3C520.2 310.6 520.4 311 520.6 311.3C520.6 311.4 520.7 311.5 520.7 311.5C520.7 311.6 520.8 311.7 520.8 311.7C521.2 312.4 521.6 313.1 522.1 313.7C522.3 314 522.5 314.3 522.7 314.6C522.8 314.7 522.8 314.8 522.9 314.9C523.2 315.4 523.6 315.9 524 316.4C524.1 316.5 524.1 316.6 524.2 316.7C524.2 316.7 524.2 316.8 524.3 316.8C524.5 317 524.7 317.3 524.9 317.6C525.1 317.9 525.3 318.1 525.5 318.3L525.6 318.4C525.8 318.6 526 318.9 526.2 319.1C526.4 319.4 526.6 319.6 526.8 319.9L526.9 320C527.2 320.3 527.4 320.6 527.7 321C527.9 321.2 528.1 321.4 528.3 321.6L528.4 321.7C528.9 322.3 529.5 322.9 530.1 323.5C530.2 323.6 530.2 323.6 530.3 323.7C530.9 324.3 531.5 324.9 532.1 325.6C532.2 325.7 532.3 325.8 532.3 325.8C532.6 326.1 532.9 326.4 533.1 326.6C533.2 326.7 533.4 326.9 533.5 327C534 327.5 534.5 328 535 328.5L535.1 328.6C535.3 328.8 535.5 329 535.7 329.2C536.1 329.6 536.5 330 536.9 330.3C537.2 330.5 537.4 330.8 537.7 331C538 331.3 538.3 331.5 538.6 331.8C538.7 331.9 538.8 332 538.9 332C539.3 332.4 539.7 332.7 540.1 333.1C540.4 333.4 540.7 333.7 541 333.9C541.4 334.3 541.9 334.7 542.3 335C542.6 335.2 542.8 335.4 543.1 335.7C543.2 335.7 543.2 335.8 543.3 335.8C544.2 336.5 545 337.2 545.9 338C546.1 338.1 546.2 338.3 546.4 338.4C547.1 339 547.9 339.6 548.7 340.2C548.8 340.3 548.9 340.4 549 340.5C549.6 340.9 550.1 341.4 550.7 341.8L561.6 350.3C562.6 351.1 563.6 351.9 564.5 352.7C564.8 352.9 565.1 353.2 565.4 353.4C566.1 353.9 566.7 354.5 567.4 355C567.7 355.3 568 355.5 568.3 355.8C569.4 356.7 570.5 357.7 571.6 358.6C572 359 572.4 359.3 572.8 359.7C573.2 360 573.5 360.4 573.9 360.7C574.2 361 574.6 361.4 574.9 361.7C575.2 361.9 575.4 362.2 575.7 362.4C576.2 362.9 576.6 363.3 577 363.8C577.1 363.9 577.2 364 577.3 364.1C577.8 364.6 578.3 365.2 578.8 365.7C578.9 365.8 579 366 579.1 366.1C579.5 366.5 579.8 367 580.2 367.4C580.3 367.5 580.4 367.6 580.5 367.7C580.9 368.2 581.3 368.7 581.7 369.3C581.9 369.6 582.1 369.8 582.3 370.1C582.5 370.4 582.7 370.7 582.9 371C583.4 371.7 583.8 372.3 584.2 373C584.5 373.5 584.8 374.1 585.1 374.6C585.1 374.7 585.2 374.7 585.2 374.8C585.5 375.3 585.7 375.9 586 376.4V376.5C586.2 377 586.5 377.6 586.7 378.1V378.2C586.9 378.7 587.1 379.3 587.3 379.8C587.5 380.3 587.6 380.9 587.7 381.4V381.5C587.8 381.7 587.8 381.9 587.8 382.2C587.5 382.1 587.2 382 586.9 381.9C586.5 381.7 586.1 381.6 585.7 381.4C585.2 381.2 584.8 381 584.3 380.8C583.9 380.6 583.5 380.5 583.2 380.3C582.7 380.1 582.3 379.8 581.8 379.6C581.5 379.4 581.1 379.2 580.8 379.1C580.1 378.7 579.4 378.3 578.6 377.9C577.9 377.5 577.2 377 576.5 376.6C576.4 376.5 576.2 376.4 576.1 376.4C575.3 375.9 574.6 375.4 573.8 374.9C573.6 374.7 573.3 374.6 573.1 374.4C572.6 374 572 373.6 571.5 373.2C571.2 373 570.9 372.7 570.6 372.5C570 372 569.4 371.6 568.8 371.1C567.8 370.3 566.8 369.5 565.9 368.6C565.4 368.2 564.9 367.8 564.4 367.3C563.7 366.7 563.1 366.1 562.4 365.5C561.9 365 561.4 364.6 560.9 364.1C560.3 363.5 559.6 362.9 559 362.2C558.5 361.7 558 361.2 557.5 360.7C556.9 360.1 556.2 359.4 555.6 358.7C555.1 358.2 554.6 357.6 554.1 357.1C553.4 356.4 552.8 355.7 552.1 355C551.6 354.5 551.1 353.9 550.6 353.4C550 352.7 549.3 351.9 548.7 351.2C548.2 350.6 547.6 350 547.1 349.3C546.5 348.6 546 347.9 545.4 347.2C544.8 346.4 544.1 345.7 543.5 344.9C542.5 343.6 541.4 342.3 540.4 340.9L539.5 339.6L517.7 351.4L518.6 352.7C519 353.3 519.5 353.9 519.9 354.4L518.4 355.3L512.7 363.8C513.3 364.6 513.8 365.4 514.4 366.1C514.5 366.2 514.5 366.3 514.6 366.3C515.3 367.3 516.1 368.3 516.9 369.3L517 369.4C517.8 370.4 518.5 371.3 519.3 372.3C519.3 372.3 519.3 372.4 519.4 372.4C520.1 373.3 520.9 374.1 521.6 375C521.7 375.1 521.8 375.2 521.9 375.4C522 375.5 522.1 375.6 522.2 375.8C523 376.7 523.7 377.5 524.5 378.3C524.6 378.4 524.8 378.6 524.9 378.7C525 378.8 525.1 378.9 525.1 379C526 380 526.9 380.9 527.8 381.8C527.9 381.9 527.9 381.9 527.9 382C528 382.1 528.1 382.2 528.2 382.3C529 383.1 529.9 384 530.7 384.8C530.8 384.9 530.9 385 531.1 385.2C531.2 385.3 531.2 385.3 531.3 385.4C532.3 386.3 533.2 387.2 534.2 388.1C534.3 388.2 534.4 388.3 534.5 388.3C534.6 388.4 534.7 388.5 534.9 388.6C535.9 389.5 536.8 390.3 537.8 391.2L537.9 391.3C538.9 392.1 539.9 393 540.9 393.8C541 393.9 541.1 394 541.3 394.1C541.4 394.2 541.5 394.3 541.6 394.3C542.6 395.1 543.6 395.8 544.6 396.6L544.7 396.7C544.8 396.8 544.9 396.8 545 396.9C545.9 397.5 546.8 398.2 547.6 398.8C547.7 398.9 547.9 399 548 399.1C548.1 399.2 548.2 399.2 548.3 399.3C549.3 400 550.2 400.6 551.2 401.2L551.3 401.3C551.4 401.4 551.5 401.4 551.7 401.5C552.5 402 553.4 402.6 554.2 403.1C554.3 403.2 554.5 403.3 554.6 403.4C554.9 403.6 555.1 403.7 555.4 403.9C556.3 404.4 557.1 404.9 557.9 405.3L558 405.4C558.1 405.5 558.3 405.5 558.4 405.6C559.2 406 560 406.4 560.8 406.8C560.9 406.9 561.1 407 561.2 407C561.3 407.1 561.5 407.1 561.6 407.2C562.3 407.5 562.9 407.8 563.6 408.1C563.8 408.2 563.9 408.3 564.1 408.3C564.2 408.3 564.2 408.3 564.3 408.4C565.1 408.8 566 409.1 566.8 409.4C566.8 409.4 566.8 409.4 566.9 409.4C567 409.4 567.1 409.5 567.3 409.5C568 409.8 568.6 410 569.2 410.2C569.3 410.2 569.4 410.3 569.4 410.3C569.6 410.4 569.8 410.4 570 410.5C570.5 410.7 571 410.8 571.4 411C571.5 411 571.7 411.1 571.8 411.1C572 411.1 572.1 411.2 572.3 411.2C572.7 411.3 573.2 411.4 573.6 411.6C573.8 411.6 573.9 411.7 574.1 411.7C574.2 411.7 574.3 411.8 574.5 411.8C574.9 411.9 575.4 412 575.8 412.1C576 412.1 576.2 412.2 576.4 412.2C576.5 412.2 576.6 412.2 576.6 412.2C577.1 412.3 577.5 412.4 578 412.4C578.2 412.4 578.4 412.5 578.5 412.5H578.6C579.3 412.6 579.9 412.7 580.6 412.7C580.7 412.7 580.7 412.7 580.8 412.7C581.4 412.7 582 412.8 582.5 412.8C582.6 412.8 582.6 412.8 582.7 412.8C582.8 412.8 583 412.8 583.1 412.8C583.6 412.8 584.1 412.8 584.6 412.7C584.7 412.7 584.8 412.7 585 412.7C585.1 412.7 585.2 412.7 585.2 412.7C585.9 412.6 586.5 412.5 587.2 412.4C587.3 412.4 587.3 412.4 587.4 412.4C587.8 412.3 588.3 412.2 588.7 412.1C588.7 412.1 588.7 412.1 588.8 412.1C589.2 412 589.6 411.9 589.9 411.7C589.9 411.7 589.9 411.7 590 411.7C590.3 411.6 590.6 411.5 590.9 411.3C591 411.2 591.2 411.2 591.3 411.1C591.7 410.9 592.2 410.7 592.6 410.4L600.8 405.6C600.8 405.7 600.7 405.8 600.7 405.9C600.5 406.4 600.2 406.8 600 407.2C599.8 407.6 599.5 408 599.2 408.4C598.8 408.9 598.5 409.3 598.1 409.8C596.9 411.1 595.6 412.2 594.1 413L615.2 400.7C617.2 399.6 618.9 398 620.3 396.1C620.5 395.8 620.7 395.5 620.9 395.2C620.9 395.1 621 395 621 395C621.3 394.6 621.5 394.1 621.7 393.7C621.8 393.6 621.8 393.5 621.9 393.4V393.3C622 393.1 622.1 392.8 622.2 392.6C622.3 392.3 622.4 392.1 622.5 391.8V391.7C622.6 391.5 622.6 391.3 622.7 391.2C622.8 390.9 622.9 390.6 623 390.3C623 390.2 623.1 390.1 623.1 390C623.2 389.8 623.2 389.6 623.2 389.4C623.2 389.2 623.3 389 623.4 388.8C623.5 388.6 623.5 388.3 623.5 388.1C623.5 387.9 623.6 387.8 623.6 387.6C623.6 387.5 623.6 387.4 623.7 387.3C623.8 386.8 623.9 386.3 623.9 385.8V385.7C623.9 385.6 623.9 385.5 623.9 385.4C623.9 385 624 384.7 624 384.3C624 384.1 624 383.9 624 383.7C624 383.5 624 383.3 624 383.2C624 383.1 624 382.9 624 382.8C624 382.3 624 381.7 624 381.2V381.1C624 380.5 624 379.9 624 379.3C624.2 378.7 624.2 378.6 624.2 378.5ZM597.6 399.7C597.3 399.7 597.1 399.6 596.8 399.5C596.4 399.4 596 399.3 595.5 399.2C595.2 399.1 594.9 399.1 594.6 399C594.2 398.9 593.7 398.8 593.3 398.6C593 398.5 592.7 398.4 592.4 398.3C591.9 398.2 591.4 398 591 397.8C590.7 397.7 590.5 397.6 590.2 397.5C589.6 397.3 588.9 397 588.3 396.8C588.2 396.7 588 396.7 587.9 396.6C587.2 396.3 586.5 396 585.7 395.7L600.6 387C600.6 387.1 600.6 387.3 600.6 387.4C600.6 387.9 600.7 388.4 600.7 388.9C600.7 389.1 600.7 389.3 600.7 389.5C600.7 390.2 600.7 390.9 600.7 391.5C600.7 392.2 600.7 392.8 600.6 393.5C600.6 393.7 600.6 393.8 600.6 394C600.6 394.5 600.5 395.1 600.5 395.6C600.5 395.7 600.5 395.8 600.5 395.9C600.4 396.5 600.3 397.1 600.2 397.6C600.2 397.8 600.1 397.9 600.1 398C600 398.4 599.9 398.8 599.8 399.2C599.8 399.4 599.7 399.6 599.7 399.7C599.6 399.7 599.5 399.7 599.5 399.7C599.3 399.7 599.1 399.6 598.9 399.6C598.6 399.9 598.1 399.8 597.6 399.7ZM535.7 276.2V276.1C535.7 275.7 535.7 275.3 535.8 274.8C535.8 274.6 535.8 274.5 535.8 274.3C535.8 274 535.9 273.7 535.9 273.4C535.9 273.2 536 273 536 272.9C536 272.7 536.1 272.4 536.1 272.2C536.1 272 536.2 271.8 536.2 271.6C536.2 271.5 536.2 271.4 536.3 271.3C536.4 271.3 536.5 271.3 536.6 271.3C536.8 271.3 537.1 271.4 537.3 271.4C537.7 271.5 538.2 271.5 538.6 271.6C538.8 271.6 539.1 271.7 539.3 271.7C539.7 271.8 540.2 271.9 540.6 272C540.8 272.1 541 272.1 541.3 272.2C541.8 272.3 542.4 272.5 542.9 272.7C543 272.7 543.1 272.8 543.3 272.8C544 273 544.6 273.2 545.3 273.5C545.5 273.6 545.7 273.6 545.9 273.7C546.4 273.9 546.9 274.1 547.4 274.3C547.7 274.4 547.9 274.5 548.2 274.6C548.7 274.8 549.1 275 549.6 275.2C549.7 275.3 549.9 275.3 550 275.4L536.1 283.5C536.1 283.4 536.1 283.4 536.1 283.3C536.1 283 536 282.6 536 282.3C536 282.1 536 282 535.9 281.8C535.9 281.5 535.8 281.2 535.8 280.9C535.8 280.7 535.8 280.6 535.8 280.4C535.8 280.1 535.8 279.8 535.7 279.5C535.7 279.3 535.7 279.2 535.7 279C535.7 278.5 535.7 278.1 535.7 277.6C535.6 277.2 535.6 276.7 535.7 276.2Z" fill="black"/>
<path id="Vector_9" d="M748.3 425.9C748.3 425.8 748.3 425.8 748.3 425.7C748.3 424.6 748.3 423.6 748.3 422.5C748.3 422.4 748.3 422.4 748.3 422.3C748.3 421.9 748.3 421.5 748.2 421.1C748.2 420.5 748.2 419.8 748.1 419.2C748.1 419.1 748.1 419 748.1 418.9C748.1 418.5 748 418.1 748 417.7C748 417.2 747.9 416.7 747.9 416.2C747.9 416 747.9 415.8 747.8 415.6C747.8 415.2 747.7 414.8 747.7 414.4C747.7 414 747.6 413.6 747.6 413.2C747.6 412.9 747.5 412.6 747.5 412.3C747.4 411.9 747.4 411.5 747.3 411.1C747.3 410.8 747.2 410.6 747.2 410.3C747.1 409.9 747 409.4 747 409C746.9 408.6 746.9 408.3 746.8 407.9C746.8 407.8 746.8 407.6 746.7 407.5C746.5 406.7 746.4 405.9 746.2 405.1C746.2 405 746.2 404.9 746.1 404.8C745.9 403.9 745.7 403 745.5 402.1C745.5 402 745.4 401.9 745.4 401.7C745.3 401.4 745.2 401.1 745.2 400.8C745.1 400.3 745 399.9 744.8 399.4C744.7 399.1 744.6 398.8 744.6 398.6C744.5 398.3 744.4 397.9 744.3 397.6C744.2 397.3 744.2 397.1 744.1 396.8C743.9 396.2 743.7 395.7 743.6 395.1C743.5 394.9 743.5 394.7 743.4 394.5C743.4 394.4 743.4 394.4 743.3 394.3C743 393.5 742.8 392.7 742.5 391.9C742.5 391.8 742.4 391.7 742.4 391.5C742.3 391.3 742.2 391 742.1 390.8C741.9 390.4 741.8 390 741.6 389.5C741.4 389.1 741.3 388.7 741.1 388.3C741 388.1 740.9 387.9 740.8 387.6C740.7 387.5 740.7 387.3 740.6 387.2C740.3 386.5 740 385.7 739.7 385C739.7 384.9 739.6 384.8 739.6 384.7C739.5 384.5 739.4 384.3 739.3 384.1C739.1 383.7 738.9 383.2 738.7 382.8C738.5 382.4 738.4 382.1 738.2 381.7C738.1 381.4 737.9 381.1 737.8 380.9C737.7 380.7 737.6 380.6 737.6 380.4C737.3 379.8 737 379.2 736.7 378.6C736.6 378.3 736.4 378.1 736.3 377.8C736.3 377.7 736.2 377.7 736.2 377.6C736.1 377.4 736 377.2 735.8 377C735.3 376 734.7 375 734.2 374.1C734.1 373.9 734 373.8 733.9 373.6C733.5 372.9 733 372.1 732.6 371.4C731.7 369.9 730.7 368.4 729.7 367C729.6 366.8 729.5 366.6 729.4 366.5C729.3 366.3 729.2 366.2 729.1 366.1C728.4 365.1 727.7 364.1 726.9 363.1C726.8 363 726.7 362.8 726.6 362.7C726.6 362.7 726.6 362.6 726.5 362.6C726.2 362.2 725.9 361.8 725.6 361.4C725.2 360.9 724.8 360.4 724.4 359.9L724.3 359.8C724.1 359.6 723.9 359.3 723.7 359.1C723.3 358.6 722.9 358.1 722.5 357.6C722.4 357.5 722.3 357.4 722.2 357.3C721.9 357 721.7 356.7 721.4 356.4C721.1 356.1 720.8 355.7 720.5 355.4C720.3 355.2 720.2 355 720 354.8C719.7 354.5 719.4 354.1 719.1 353.8C718.9 353.6 718.7 353.3 718.4 353.1C718.2 352.8 717.9 352.6 717.7 352.3C717.4 352 717 351.6 716.7 351.3C716.5 351.1 716.4 350.9 716.2 350.8C715.9 350.5 715.6 350.2 715.4 350C715 349.6 714.7 349.3 714.3 348.9C714.2 348.8 714 348.6 713.9 348.5C713.6 348.2 713.3 347.9 713 347.7C712.6 347.3 712.2 346.9 711.7 346.5C711.6 346.4 711.4 346.2 711.3 346.1C711 345.8 710.7 345.6 710.4 345.3C709.9 344.9 709.5 344.5 709 344.1C708.8 344 708.7 343.8 708.6 343.7C708.3 343.5 708 343.2 707.7 343C707.2 342.6 706.7 342.2 706.2 341.8C706 341.7 705.9 341.5 705.7 341.4C705.4 341.2 705.2 341 704.9 340.8C704.4 340.4 703.8 340 703.3 339.6C703.1 339.5 702.9 339.3 702.7 339.1C702.5 338.9 702.2 338.7 702 338.6C701.4 338.2 700.9 337.8 700.3 337.4C700.1 337.2 699.8 337.1 699.6 336.9C699.4 336.8 699.2 336.6 698.9 336.5C698.3 336.1 697.7 335.7 697.1 335.3C696.8 335.1 696.6 334.9 696.3 334.8C696.1 334.7 695.9 334.6 695.8 334.5C695.1 334.1 694.5 333.7 693.8 333.3C693.5 333.1 693.2 332.9 692.9 332.7C692.6 332.5 692.4 332.4 692.1 332.2L646.8 306L625.7 318.3L629.9 320.7L627.8 321.9L627.5 443.5L668.6 467.2C669.5 467.7 670.3 468.2 671.2 468.7C671.3 468.7 671.4 468.8 671.4 468.8C672 469.1 672.5 469.4 673.1 469.7C673.5 469.9 673.9 470.1 674.3 470.3C674.4 470.3 674.4 470.4 674.5 470.4C675 470.6 675.4 470.8 675.9 471.1C676.3 471.3 676.8 471.5 677.2 471.7C677.3 471.7 677.3 471.8 677.4 471.8C677.8 472 678.2 472.1 678.6 472.3C679 472.5 679.5 472.7 679.9 472.9C680 472.9 680.1 473 680.2 473C680.6 473.2 681 473.3 681.4 473.4C681.8 473.5 682.2 473.7 682.6 473.9C682.7 473.9 682.9 474 683 474C683.4 474.1 683.7 474.2 684.1 474.4C684.4 474.5 684.8 474.6 685.1 474.7C685.3 474.8 685.4 474.8 685.6 474.8C686 474.9 686.3 475 686.7 475.1C687 475.2 687.3 475.3 687.5 475.3C687.7 475.4 687.9 475.4 688.1 475.4C688.5 475.5 688.8 475.6 689.2 475.6C689.4 475.6 689.6 475.7 689.9 475.7C690.2 475.7 690.4 475.8 690.6 475.8C691 475.9 691.3 475.9 691.7 476C691.9 476 692.1 476.1 692.2 476.1C692.5 476.1 692.7 476.2 693 476.2C693.4 476.2 693.8 476.3 694.2 476.3C694.4 476.3 694.5 476.3 694.7 476.3C695 476.3 695.2 476.3 695.5 476.3C695.9 476.3 696.3 476.3 696.8 476.3C696.9 476.3 697.1 476.3 697.3 476.3C697.5 476.3 697.7 476.3 697.9 476.3C698.4 476.3 698.9 476.3 699.4 476.2C699.6 476.2 699.8 476.2 699.9 476.2C700.2 476.2 700.5 476.1 700.8 476.1C700.9 476.1 701 476.1 701.2 476.1C701.7 476 702.3 475.9 702.8 475.8C702.9 475.8 703 475.8 703.1 475.7C703.3 475.7 703.5 475.6 703.8 475.5C704.2 475.4 704.7 475.3 705.1 475.1C705.3 475 705.6 475 705.8 474.9C706 474.8 706.1 474.8 706.3 474.8C706.6 474.7 706.8 474.6 707.1 474.5C707.3 474.4 707.5 474.4 707.7 474.3C708.3 474 708.9 473.8 709.5 473.5C709.9 473.3 710.2 473.1 710.6 472.9L720.8 467C720.6 467.3 720.5 467.5 720.3 467.8C720.2 467.9 720.1 468.1 720 468.2C719.6 468.8 719.2 469.3 718.8 469.8C718.7 469.9 718.6 470 718.5 470.1C718.1 470.5 717.8 470.9 717.4 471.3C717.3 471.4 717.2 471.5 717.1 471.7C716.6 472.2 716.2 472.6 715.7 473C715.6 473.1 715.5 473.1 715.5 473.2C715.1 473.6 714.6 473.9 714.2 474.2C714.1 474.3 713.9 474.4 713.8 474.5C713.3 474.9 712.7 475.2 712.2 475.6L733.3 463.3C733.9 463 734.4 462.6 734.9 462.2C735 462.1 735.2 462 735.3 461.9C735.8 461.6 736.2 461.2 736.6 460.9C736.7 460.8 736.8 460.8 736.8 460.7C737.3 460.3 737.8 459.8 738.2 459.4C738.3 459.3 738.4 459.2 738.5 459C738.9 458.6 739.2 458.2 739.6 457.8C739.7 457.7 739.8 457.6 739.9 457.5C740.3 457 740.7 456.5 741.1 455.9C741.2 455.8 741.3 455.7 741.4 455.5C741.6 455.2 741.8 455 741.9 454.7C742 454.5 742.1 454.3 742.2 454.1C742.3 453.9 742.5 453.6 742.6 453.4C742.8 453 743.1 452.5 743.3 452.1C743.4 451.9 743.5 451.7 743.6 451.4C743.6 451.3 743.7 451.2 743.7 451.2C744 450.6 744.2 450.1 744.5 449.5C744.6 449.4 744.6 449.2 744.7 449.1C744.8 448.8 745 448.5 745.1 448.1C745.2 447.9 745.2 447.8 745.3 447.6C745.5 447 745.7 446.5 745.9 445.9C746 445.7 746.1 445.5 746.1 445.2C746.1 445.1 746.2 444.9 746.2 444.8C746.4 444.3 746.5 443.7 746.6 443.1C746.7 442.8 746.8 442.5 746.8 442.2C746.8 442.1 746.8 442 746.9 441.9C747 441.4 747.1 440.8 747.2 440.3C747.3 440 747.3 439.6 747.4 439.3C747.4 439.2 747.4 439.1 747.4 439C747.5 438.5 747.6 437.9 747.6 437.4C747.7 437 747.7 436.6 747.8 436.2C747.8 436.1 747.8 436 747.8 436C747.9 435.4 747.9 434.9 748 434.3C748 433.9 748.1 433.4 748.1 433C748.1 432.9 748.1 432.9 748.1 432.8C748.1 432.2 748.2 431.6 748.2 430.9C748.2 430.5 748.3 430 748.3 429.6C748.3 429.5 748.3 429.5 748.3 429.4C748.3 428.7 748.3 427.9 748.4 427.1C748.3 426.7 748.3 426.3 748.3 425.9ZM716.6 463.9C716.2 463.9 715.8 463.9 715.4 463.8C715 463.8 714.6 463.7 714.2 463.7C713.8 463.6 713.3 463.6 712.9 463.5C712.5 463.4 712.2 463.4 711.8 463.3C711.3 463.2 710.9 463.1 710.4 463C710 462.9 709.7 462.8 709.3 462.8C708.8 462.7 708.3 462.6 707.8 462.4C707.4 462.3 707.1 462.2 706.7 462.1C706.2 462 705.7 461.8 705.2 461.6C704.8 461.5 704.5 461.4 704.1 461.2C703.6 461 703 460.8 702.5 460.6C702.1 460.5 701.7 460.3 701.3 460.2C701.1 460.1 700.9 460 700.7 460L721.8 447.8C721.9 447.7 722.1 447.6 722.2 447.6C722.7 447.3 723.3 446.9 723.8 446.5C724 446.4 724.1 446.3 724.3 446.1C724.4 446 724.6 445.9 724.7 445.8C724.7 445.9 724.7 446 724.7 446.1C724.7 446.5 724.6 446.8 724.6 447.2C724.5 447.9 724.4 448.5 724.3 449.1C724.3 449.4 724.2 449.7 724.2 449.9C724 450.8 723.9 451.7 723.7 452.6C723.7 452.7 723.6 452.8 723.6 452.9C723.4 453.7 723.2 454.4 723 455.2C722.9 455.5 722.8 455.7 722.8 456C722.6 456.7 722.4 457.3 722.2 457.9C722.1 458.2 722 458.5 721.9 458.8C721.8 459 721.7 459.2 721.7 459.4C721.5 459.8 721.3 460.3 721.2 460.7C721.1 460.9 721.1 461 721 461.2C720.8 461.6 720.7 461.9 720.5 462.2C720.4 462.5 720.2 462.7 720.1 463C719.9 463.3 719.7 463.7 719.5 464C719.4 464 719.4 464 719.3 464C718.9 464 718.6 464 718.2 464C717.4 464 717 464 716.6 463.9ZM668.6 360C681 367.2 691.1 377.1 698.6 389.4C706.3 402 710.2 415.4 710.1 429.2C710.1 436.5 709.1 442.5 707.3 447.3H707.2C706.8 447.2 706.5 447.2 706.1 447.1C705.9 447.1 705.6 447 705.4 446.9C705 446.8 704.7 446.7 704.3 446.6C704.1 446.5 703.8 446.5 703.5 446.4C703.1 446.3 702.8 446.2 702.4 446.1C702.1 446 701.9 445.9 701.6 445.8C701.2 445.7 700.8 445.5 700.5 445.4C700.2 445.3 700 445.2 699.7 445.1C699.3 444.9 698.9 444.8 698.5 444.6C698.2 444.5 697.9 444.4 697.7 444.2C697.3 444 696.9 443.8 696.5 443.7C696.2 443.6 695.9 443.4 695.6 443.3C695.3 443.1 694.9 442.9 694.5 442.8C694.1 442.6 693.7 442.4 693.3 442.2C692.6 441.8 691.9 441.5 691.3 441.1L662.4 424.4L662.6 356.7L668.6 360ZM650.1 334.6L648.6 335.5V333.8L650.1 334.6Z" fill="black"/>
</g>
<g id="pismena">
<g id="Group_6">
<g id="pis-S">
<g id="Group_7">
<path id="Vector_10" d="M599.8 375.2C602 380.5 603.1 386.5 603.1 393C603.1 399.5 601.7 404.7 599 408.3C596.3 411.9 592.7 414.2 588.3 415C579.7 416.6 568.7 413.6 555.4 406C543.1 398.9 531.4 389 520.6 376.6C517.1 372.5 513.7 368.3 510.7 363.9L510 362.8L517.8 351.3L518.7 352.6C528 364.9 537.5 375 547.1 382.7C550.3 385.3 553.6 387.6 556.9 389.5C560.2 391.4 563.7 393.1 567.3 394.4C570.8 395.7 574 396.4 576.6 396.3C582.6 396.1 585.5 392.3 585.5 384.7C585.5 377 580.6 368.9 570.5 359.9C567.4 357.2 564.1 354.5 560.7 351.7L549.8 343.2C535.8 332.4 525.9 322.5 520.3 313.8C515 305.7 512.3 297.2 512.4 288.6C512.4 277 517.3 270.3 527 268.7C535.5 267.2 545.6 269.9 557.1 276.5C568.1 282.8 578.1 290.7 586.8 299.9C589.9 303.1 593.2 306.8 596.6 310.9L597.4 311.9L591.3 325L590.2 323.7C583 314.6 574.4 306.3 564.6 299.2C561.5 296.9 558.5 294.9 555.6 293.2C549 289.4 543.2 287.5 538.2 287.5C532.5 287.5 529.7 290.3 529.7 296.1C529.7 302.1 533.2 308.5 540.4 315.5C543.8 318.8 547.7 322.2 552 325.6L565.6 336.1C577.3 345.4 585.2 352.7 589.7 358.5C594.2 364.3 597.6 369.9 599.8 375.2ZM597.1 406C599.6 402.6 600.9 397.8 600.9 391.8C600.9 385.7 599.9 380.2 597.9 375.5C595.9 370.7 592.7 365.5 588.5 360.1C584.2 354.6 576.3 347.3 565.1 338.4L551.6 327.8C547.2 324.4 543.2 320.9 539.7 317.5C531.6 309.6 527.5 302 527.5 294.9C527.5 288.2 530.8 284.9 537.2 284.8C542.5 284.8 548.7 286.8 555.6 290.8C558.6 292.5 561.7 294.6 564.9 297C574.5 304 583.1 312.1 590.3 321L594.7 311.5C591.7 307.9 588.8 304.7 586 301.8C577.5 292.9 567.8 285.2 557.1 279C546 272.6 536.3 270.1 528.2 271.5C519.1 273 514.6 279 514.6 289.9C514.6 297.8 516.9 305.3 521.8 312.8C527.1 321 536.7 330.5 550.3 341.1L561.2 349.6C564.7 352.4 568.1 355.2 571.2 357.9C582.2 367.7 587.8 377.1 587.8 385.9C587.8 394.4 584.4 398.7 577.7 399C574.8 399.1 571.5 398.4 567.7 397C564 395.6 560.4 393.9 557 391.9C553.5 389.9 550.1 387.5 546.7 384.8C537.2 377.1 527.7 367.2 518.5 355.2L512.8 363.7C515.5 367.5 518.5 371.3 521.6 374.9C532.1 386.9 543.5 396.5 555.5 403.4C568.3 410.8 578.9 413.7 587.2 412.2C591.2 411.5 594.6 409.4 597.1 406Z" fill="black"/>
</g>
<g id="Group_8">
<path id="Vector_11" d="M557 279.1C567.7 285.3 577.4 292.9 585.9 301.9C588.7 304.8 591.6 308 594.6 311.6L590.2 321.1C583 312.2 574.4 304.1 564.8 297.1C561.6 294.7 558.5 292.7 555.5 290.9C548.6 286.9 542.4 284.9 537.1 284.9C530.7 284.9 527.4 288.3 527.4 295C527.4 302.1 531.5 309.7 539.6 317.6C543.1 321 547.1 324.5 551.5 327.9L565 338.4C576.2 347.3 584.1 354.6 588.4 360.1C592.7 365.5 595.8 370.7 597.8 375.5C599.8 380.3 600.8 385.7 600.8 391.8C600.8 397.9 599.5 402.7 597 406C594.5 409.4 591.1 411.5 586.9 412.2C578.7 413.8 568 410.8 555.2 403.4C543.2 396.5 531.8 386.9 521.3 374.9C518.2 371.3 515.2 367.5 512.5 363.7L518.2 355.2C527.4 367.2 536.9 377.1 546.4 384.8C549.7 387.5 553.2 389.9 556.7 391.9C560.2 393.9 563.8 395.6 567.4 397C571.1 398.4 574.5 399.1 577.4 399C584.1 398.8 587.4 394.4 587.5 385.9C587.5 377.1 581.9 367.7 570.9 357.9C567.8 355.2 564.4 352.4 560.9 349.6L550 341.1C536.4 330.5 526.8 321 521.5 312.8C516.6 305.3 514.3 297.9 514.3 289.9C514.3 279 518.8 273 527.9 271.5C536.2 270.2 546 272.7 557 279.1Z" fill="white"/>
</g>
</g>
<g id="pis-D">
<g id="Group_9">
<path id="Vector_12" d="M709.9 384.7C720 401.2 725.1 418.7 725.1 436.7C725 455.7 719.7 468.1 709.3 473.4C699 478.8 685.2 476.5 668.4 466.8L627.3 443.1L627.6 321.5L670.8 346.4C687 355.9 700.1 368.7 709.9 384.7ZM701 459.9C708.4 455.3 712.2 445.4 712.2 430.4C712.2 415.9 708.1 401.7 700 388.4C692.1 375.4 681.5 365 668.5 357.5L639.5 340.7L639.2 437.7L670.2 455.6C683.2 463.1 693.5 464.5 701 459.9Z" fill="white" stroke="black" stroke-width="0.75" stroke-miterlimit="10"/>
</g>
<g id="Group_10">
<path id="Vector_13" d="M711.3 383.8C721.9 401.1 727.2 419.3 727.1 438C727 457.7 721.5 470.5 710.6 476.1C699.9 481.7 685.6 479.4 668.2 469.3L625 444.4L625.4 318L670.7 344.2C687.5 353.7 701.2 367.1 711.3 383.8ZM709.3 473.4C719.7 468 725.1 455.7 725.1 436.7C725.2 418.8 720.1 401.3 709.9 384.7C700.1 368.7 687 355.8 670.8 346.5L627.6 321.6L627.3 443.2L668.4 466.9C685.2 476.6 699 478.8 709.3 473.4Z" fill="black"/>
</g>
</g>
</g>
</g>
<g id="pohlceni">
<path id="Vector 3" d="M539.5 337.5L584 379.5L585 381L585.5 383C585.546 389.046 584.883 391.677 582 394.5C577.32 397.637 572.779 396.359 564 393C554.15 388.48 548.798 384.665 539.5 376C530.301 366.995 525.402 361.623 517.5 351L539.5 337.5Z" fill="white"/>
<path id="Vector 2" d="M594.5 328.5L555.5 294L553.5 292L551.5 291C544.086 287.834 540.393 287.013 535 288C530.5 288.5 529 294 530 299C531.598 305.912 534.779 310.121 543 318C553.426 326.957 561 332.5 574 343C584.046 351.249 588.479 356.351 595 366C600.625 375.196 602.319 380.684 603 391C603.161 403.663 600.616 407.845 594 413L623 401.5L624.5 381.5L624 364L622 354L594.5 328.5Z" fill="white"/>
<path id="Vector 1" d="M548 255.5L525 269C531.782 267.303 536.023 267.92 544 270.5C554.598 274.289 560.246 277.651 570 285C581.301 293.783 587.308 299.74 597.5 312L591 326L596.5 324.5C597 324 615 317.5 616 317C616.8 316.6 622 310.167 624.5 307L618 286.5L579.5 257L548 255.5Z" fill="white"/>
<path id="Vector 4" d="M647.5 304.5L624.5 318H625.5L626.04 318.31C661.86 338.893 682.11 350.528 682 351.5C696.653 363.295 704.004 370.972 714 388.5C717.697 391.813 726.54 418.52 726.5 427C727.358 434.949 727.353 439.54 726.5 448C725.475 455.608 724.323 459.576 721 466C718.297 470.669 716.248 472.947 711 476L712.5 477.5L752 463L770 417L720.5 343.5L647.5 304.5Z" fill="white"/>
<path id="Vector 5" d="M708.249 445.154C705.802 452.893 703.652 455.973 698.71 458.706C690.322 462.627 684.624 461.434 673.432 455.802L641 436.926L641.477 344L667.709 359.488C677.024 365.011 681.687 368.652 688.695 376.427C697.964 386.842 701.596 393.246 705.865 405.467C709.715 417.547 710.565 424.537 709.68 437.41L708.249 445.154Z" fill="white"/>
</g>
</g>
</svg>
