<svg width="223" height="197" viewBox="0 0 223 197" fill="none" xmlns="http://www.w3.org/2000/svg">
<path d="M5 47.3421V172.219C5 183.61 14.0272 191.348 25.2038 191.348H198.441C208.973 191.348 218 181.031 218 172.004V47.3421M5 47.3421V25.2038C5.44195 13.511 13.1859 5.72627 24.1292 5H196.077C207.813 5.43018 215.774 12.4086 218 25.2038V47.3421M5 47.3421H218M33.1564 161.472V81.5166H100.646V161.472H33.1564Z" stroke="black" stroke-width="10"/>
<path d="M127.942 81.3018H187.049" stroke="black" stroke-width="10"/>
<path d="M127.942 107.954H187.049" stroke="black" stroke-width="10"/>
<path d="M127.942 134.605H187.049" stroke="black" stroke-width="10"/>
<path d="M127.942 162.547H187.049" stroke="black" stroke-width="10"/>
<circle cx="27.5681" cy="26.0635" r="8.03179" stroke="black" stroke-width="5"/>
<circle cx="54.22" cy="26.0635" r="8.03179" stroke="black" stroke-width="5"/>
<circle cx="80.8718" cy="26.0635" r="8.03179" stroke="black" stroke-width="5"/>
</svg>
