<svg width="106" height="28" viewBox="0 0 106 28" fill="none" xmlns="http://www.w3.org/2000/svg">
<path d="M14.156 27.288C11.612 27.288 9.32 26.736 7.28 25.632C5.24 24.504 3.632 22.956 2.456 20.988C1.304 19.02 0.727997 16.824 0.727997 14.4C0.727997 11.976 1.304 9.78 2.456 7.812C3.632 5.844 5.24 4.308 7.28 3.204C9.32 2.076 11.612 1.512 14.156 1.512C16.676 1.512 18.956 2.076 20.996 3.204C23.036 4.308 24.632 5.844 25.784 7.812C26.936 9.756 27.512 11.952 27.512 14.4C27.512 16.848 26.936 19.056 25.784 21.024C24.632 22.968 23.036 24.504 20.996 25.632C18.956 26.736 16.676 27.288 14.156 27.288ZM14.156 24.084C16.004 24.084 17.66 23.664 19.124 22.824C20.612 21.984 21.776 20.832 22.616 19.368C23.48 17.88 23.912 16.224 23.912 14.4C23.912 12.576 23.48 10.932 22.616 9.468C21.776 7.98 20.612 6.816 19.124 5.976C17.66 5.136 16.004 4.716 14.156 4.716C12.308 4.716 10.628 5.136 9.116 5.976C7.628 6.816 6.452 7.98 5.588 9.468C4.748 10.932 4.328 12.576 4.328 14.4C4.328 16.224 4.748 17.88 5.588 19.368C6.452 20.832 7.628 21.984 9.116 22.824C10.628 23.664 12.308 24.084 14.156 24.084Z" fill="black"/>
<path d="M52.3663 7.74C54.7903 7.74 56.7103 8.448 58.1263 9.864C59.5663 11.256 60.2863 13.308 60.2863 16.02V27H56.8303V16.416C56.8303 14.568 56.3863 13.176 55.4983 12.24C54.6103 11.304 53.3383 10.836 51.6823 10.836C49.8103 10.836 48.3343 11.388 47.2543 12.492C46.1743 13.572 45.6343 15.132 45.6343 17.172V27H42.1783V7.92H45.4903V10.8C46.1863 9.816 47.1223 9.06 48.2983 8.532C49.4983 8.004 50.8543 7.74 52.3663 7.74Z" fill="black"/>
<path d="M84.7877 7.92V27H81.4757V23.976C80.7077 25.032 79.7357 25.836 78.5597 26.388C77.3837 26.94 76.0877 27.216 74.6717 27.216C72.8237 27.216 71.1677 26.808 69.7037 25.992C68.2397 25.176 67.0877 24.036 66.2477 22.572C65.4317 21.084 65.0237 19.38 65.0237 17.46C65.0237 15.54 65.4317 13.848 66.2477 12.384C67.0877 10.92 68.2397 9.78 69.7037 8.964C71.1677 8.148 72.8237 7.74 74.6717 7.74C76.0397 7.74 77.2997 8.004 78.4517 8.532C79.6037 9.036 80.5637 9.792 81.3317 10.8V7.92H84.7877ZM74.9597 24.192C76.1597 24.192 77.2517 23.916 78.2357 23.364C79.2197 22.788 79.9877 21.996 80.5397 20.988C81.0917 19.956 81.3677 18.78 81.3677 17.46C81.3677 16.14 81.0917 14.976 80.5397 13.968C79.9877 12.936 79.2197 12.144 78.2357 11.592C77.2517 11.04 76.1597 10.764 74.9597 10.764C73.7357 10.764 72.6317 11.04 71.6477 11.592C70.6877 12.144 69.9197 12.936 69.3437 13.968C68.7917 14.976 68.5157 16.14 68.5157 17.46C68.5157 18.78 68.7917 19.956 69.3437 20.988C69.9197 21.996 70.6877 22.788 71.6477 23.364C72.6317 23.916 73.7357 24.192 74.9597 24.192ZM77.7677 0.467999H82.1597L76.1117 5.148H72.8717L77.7677 0.467999Z" fill="black"/>
<path d="M96.7988 27.216C95.2388 27.216 93.7388 27.012 92.2988 26.604C90.8588 26.172 89.7308 25.632 88.9148 24.984L90.3548 22.248C91.1948 22.848 92.2148 23.328 93.4148 23.688C94.6148 24.048 95.8268 24.228 97.0508 24.228C100.075 24.228 101.587 23.364 101.587 21.636C101.587 21.06 101.383 20.604 100.975 20.268C100.567 19.932 100.051 19.692 99.4268 19.548C98.8268 19.38 97.9628 19.2 96.8348 19.008C95.2988 18.768 94.0388 18.492 93.0548 18.18C92.0948 17.868 91.2668 17.34 90.5708 16.596C89.8748 15.852 89.5268 14.808 89.5268 13.464C89.5268 11.736 90.2468 10.356 91.6868 9.324C93.1268 8.268 95.0588 7.74 97.4828 7.74C98.7548 7.74 100.027 7.896 101.299 8.208C102.571 8.52 103.615 8.94 104.431 9.468L102.955 12.204C101.395 11.196 99.5588 10.692 97.4468 10.692C95.9828 10.692 94.8668 10.932 94.0988 11.412C93.3308 11.892 92.9468 12.528 92.9468 13.32C92.9468 13.944 93.1628 14.436 93.5948 14.796C94.0268 15.156 94.5548 15.42 95.1788 15.588C95.8268 15.756 96.7268 15.948 97.8788 16.164C99.4148 16.428 100.651 16.716 101.587 17.028C102.547 17.316 103.363 17.82 104.035 18.54C104.707 19.26 105.043 20.268 105.043 21.564C105.043 23.292 104.299 24.672 102.811 25.704C101.347 26.712 99.3428 27.216 96.7988 27.216Z" fill="black"/>
</svg>
