<svg class="motto-services" width="123" height="35" viewBox="0 0 123 35" fill="none" xmlns="http://www.w3.org/2000/svg">
<path d="M10.124 27.288C8.228 27.288 6.392 27 4.616 26.424C2.864 25.824 1.484 25.056 0.476002 24.12L1.808 21.312C2.768 22.176 3.992 22.884 5.48 23.436C6.992 23.964 8.54 24.228 10.124 24.228C12.212 24.228 13.772 23.88 14.804 23.184C15.836 22.464 16.352 21.516 16.352 20.34C16.352 19.476 16.064 18.78 15.488 18.252C14.936 17.7 14.24 17.28 13.4 16.992C12.584 16.704 11.42 16.38 9.908 16.02C8.012 15.564 6.476 15.108 5.3 14.652C4.148 14.196 3.152 13.5 2.312 12.564C1.496 11.604 1.088 10.32 1.088 8.712C1.088 7.368 1.436 6.156 2.132 5.076C2.852 3.996 3.932 3.132 5.372 2.484C6.812 1.836 8.6 1.512 10.736 1.512C12.224 1.512 13.688 1.704 15.128 2.088C16.568 2.472 17.804 3.024 18.836 3.744L17.648 6.624C16.592 5.952 15.464 5.448 14.264 5.112C13.064 4.752 11.888 4.572 10.736 4.572C8.696 4.572 7.16 4.944 6.128 5.688C5.12 6.432 4.616 7.392 4.616 8.568C4.616 9.432 4.904 10.14 5.48 10.692C6.056 11.22 6.764 11.64 7.604 11.952C8.468 12.24 9.632 12.552 11.096 12.888C12.992 13.344 14.516 13.8 15.668 14.256C16.82 14.712 17.804 15.408 18.62 16.344C19.46 17.28 19.88 18.54 19.88 20.124C19.88 21.444 19.52 22.656 18.8 23.76C18.08 24.84 16.988 25.704 15.524 26.352C14.06 26.976 12.26 27.288 10.124 27.288Z" fill="black"/>
<path d="M30.4314 27.216C28.5834 27.216 27.1554 26.712 26.1474 25.704C25.1394 24.672 24.6354 23.232 24.6354 21.384V0.287998H28.0914V21.096C28.0914 22.128 28.3314 22.92 28.8114 23.472C29.3154 24.024 30.0594 24.3 31.0434 24.3C31.6434 24.3 32.2074 24.18 32.7354 23.94L32.9154 26.784C32.1234 27.072 31.2954 27.216 30.4314 27.216Z" fill="black"/>
<path d="M53.9858 7.92V27H50.7098V24.12C50.0138 25.104 49.0898 25.872 47.9378 26.424C46.8098 26.952 45.5738 27.216 44.2298 27.216C41.6858 27.216 39.6818 26.52 38.2178 25.128C36.7538 23.712 36.0218 21.636 36.0218 18.9V7.92H39.4778V18.504C39.4778 20.352 39.9218 21.756 40.8098 22.716C41.6978 23.652 42.9698 24.12 44.6258 24.12C46.4498 24.12 47.8898 23.568 48.9458 22.464C50.0018 21.36 50.5298 19.8 50.5298 17.784V7.92H53.9858Z" fill="black"/>
<path d="M74.8931 24.156V27H58.9091V24.768L63.7691 18.72H60.3131V15.984H66.0011L70.1771 10.764H59.1251V7.92H74.6051V10.188L69.8891 16.02H73.4531V18.756H67.6931L63.3371 24.156H74.8931ZM73.2371 0.467999L68.4491 5.148H65.1371L60.3491 0.467999H63.4811L66.7931 3.204L70.1051 0.467999H73.2371Z" fill="black"/>
<path d="M89.8061 7.74C91.6541 7.74 93.3101 8.148 94.7741 8.964C96.2381 9.78 97.3781 10.92 98.1941 12.384C99.0341 13.848 99.4541 15.54 99.4541 17.46C99.4541 19.38 99.0341 21.084 98.1941 22.572C97.3781 24.036 96.2381 25.176 94.7741 25.992C93.3101 26.808 91.6541 27.216 89.8061 27.216C88.3901 27.216 87.0941 26.94 85.9181 26.388C84.7421 25.836 83.7701 25.032 83.0021 23.976V27H79.6901V0.287998H83.1461V10.8C83.9141 9.792 84.8741 9.036 86.0261 8.532C87.1781 8.004 88.4381 7.74 89.8061 7.74ZM89.5181 24.192C90.7421 24.192 91.8341 23.916 92.7941 23.364C93.7781 22.788 94.5461 21.996 95.0981 20.988C95.6741 19.956 95.9621 18.78 95.9621 17.46C95.9621 16.14 95.6741 14.976 95.0981 13.968C94.5461 12.936 93.7781 12.144 92.7941 11.592C91.8341 11.04 90.7421 10.764 89.5181 10.764C88.3181 10.764 87.2261 11.04 86.2421 11.592C85.2581 12.144 84.4901 12.936 83.9381 13.968C83.3861 14.976 83.1101 16.14 83.1101 17.46C83.1101 18.78 83.3861 19.956 83.9381 20.988C84.4901 21.996 85.2581 22.788 86.2421 23.364C87.2261 23.916 88.3181 24.192 89.5181 24.192Z" fill="black"/>
<path d="M122.013 7.92V24.408C122.013 27.744 121.233 30.204 119.673 31.788C118.113 33.396 115.773 34.2 112.653 34.2C110.949 34.2 109.317 33.948 107.757 33.444C106.221 32.964 104.961 32.268 103.977 31.356L105.669 28.692C106.509 29.46 107.517 30.06 108.693 30.492C109.893 30.924 111.153 31.14 112.473 31.14C114.561 31.14 116.097 30.612 117.081 29.556C118.065 28.524 118.557 26.928 118.557 24.768V23.364C117.861 24.276 116.961 24.984 115.857 25.488C114.753 25.968 113.553 26.208 112.257 26.208C109.713 26.208 107.709 25.512 106.245 24.12C104.781 22.728 104.049 20.664 104.049 17.928V7.92H107.505V17.532C107.505 19.356 107.949 20.748 108.837 21.708C109.725 22.644 110.997 23.112 112.653 23.112C114.477 23.112 115.917 22.56 116.973 21.456C118.029 20.352 118.557 18.792 118.557 16.776V7.92H122.013Z" fill="black"/>
</svg>
