<svg width="209" height="209" viewBox="0 0 209 209" fill="none" xmlns="http://www.w3.org/2000/svg">
<circle cx="104.5" cy="104.5" r="100.5" stroke="black" stroke-width="8"/>
<circle cx="104.5" cy="104.5" r="86.6037" stroke="black" stroke-width="8"/>
<path d="M75.932 121.288C74.492 121.288 73.772 120.544 73.772 119.056V97.636C73.772 96.892 73.952 96.328 74.312 95.944C74.696 95.536 75.188 95.332 75.788 95.332C76.34 95.332 76.748 95.44 77.012 95.656C77.3 95.848 77.636 96.184 78.02 96.664L90.872 113.332V97.528C90.872 96.064 91.592 95.332 93.032 95.332C94.448 95.332 95.156 96.064 95.156 97.528V119.128C95.156 119.8 94.988 120.328 94.652 120.712C94.316 121.096 93.86 121.288 93.284 121.288C92.732 121.288 92.288 121.18 91.952 120.964C91.64 120.748 91.292 120.4 90.908 119.92L78.056 103.216V119.056C78.056 120.544 77.348 121.288 75.932 121.288ZM103.078 121.288C101.494 121.288 100.702 120.472 100.702 118.84V98.068C100.702 96.436 101.518 95.62 103.15 95.62H115.714C116.962 95.62 117.586 96.22 117.586 97.42C117.586 98.668 116.962 99.292 115.714 99.292H105.31V106.456H114.958C116.206 106.456 116.83 107.056 116.83 108.256C116.83 109.504 116.206 110.128 114.958 110.128H105.31V118.84C105.31 120.472 104.566 121.288 103.078 121.288ZM129.622 121.288C128.086 121.288 127.318 120.496 127.318 118.912V99.472H120.298C118.978 99.472 118.318 98.824 118.318 97.528C118.318 96.256 118.978 95.62 120.298 95.62H138.946C140.266 95.62 140.926 96.256 140.926 97.528C140.926 98.824 140.266 99.472 138.946 99.472H131.926V118.912C131.926 120.496 131.158 121.288 129.622 121.288Z" fill="black"/>
<path d="M103.666 81.4322V51.4163" stroke="black" stroke-width="8"/>
<path d="M85.0452 81.1543V66.0293L76.1516 55.0293" stroke="black" stroke-width="8"/>
<path d="M122.287 81.1543V66.0293L131.181 55.0293" stroke="black" stroke-width="8"/>
<path d="M103.944 131.737V161.753" stroke="black" stroke-width="8"/>
<path d="M85.0452 131.737V146.862L76.1516 157.862" stroke="black" stroke-width="8"/>
<path d="M122.287 131.737V146.862L131.181 157.862" stroke="black" stroke-width="8"/>
<circle cx="76.1516" cy="55.0292" r="5.55851" fill="black"/>
<circle cx="103.944" cy="51.1382" r="5.55851" fill="black"/>
<circle cx="131.181" cy="55.0292" r="5.55851" fill="black"/>
<circle cx="131.181" cy="157.862" r="5.55851" fill="black"/>
<circle cx="104.5" cy="161.753" r="5.55851" fill="black"/>
<circle cx="76.1516" cy="157.862" r="5.55851" fill="black"/>
</svg>
